<?xml version="1.0" encoding="UTF-8"?>
<svg id="Layer_2" data-name="Layer 2" xmlns="http://www.w3.org/2000/svg" viewBox="0 0 910.0005190337 309.0350872986">
  <defs>
    <style>
      .cls-1 {
        fill: #00003f;
      }

      .cls-2 {
        fill: #ff6f2a;
      }
    </style>
  </defs>
  <g id="Layer_1-2" data-name="Layer 1">
    <path class="cls-1" d="M361.0713960307,238.7133506861c0-15.4533771412,3.3565417894-28.1875518407,10.0729886365-38.2016832815,6.7114019447-10.0074049042,15.2053361021-18.1801469365,25.4683493991-24.5173852799,10.263013297-6.3313526238,21.4761498961-11.3375775271,33.6410914314-15.0144706246,12.1632599012-3.6701665608,23.7564458211-7.0317532527,34.7795577598-10.0729886365s20.5865654238-6.1413279634,28.6987686263-9.3128899949c6.1272776061-2.3925741741,10.5178434089-4.6054255726,13.1738753663-7.9512820444,1.1667814869-1.4698179282.1258684123-3.6425765292-1.750762553-3.6425765292h-129.7150973357c-1.2336800893,0-2.2337754025-1.0000953132-2.2337754025-2.2337754025v-38.8658072885c0-1.2336800893,1.0000953131-2.2337754025,2.2337754025-2.2337754025h181.4384637444c1.2336800893,0,2.2337754025,1.0000953132,2.2337754025,2.2337754025v212.1992396623c0,1.2336800893-1.0000953131,2.2337754025-2.2337754025,2.2337754025h-40.3866772255c-1.2336800893,0-2.2337754025-1.0000953132-2.2337754025-2.2337754025v-34.9104282973c0-1.2921589124-1.0930669476-2.3147810749-2.382363932-2.2288279426l-1.985611396.1323740931c-.8207389946.054715933-1.5374437924.5665865835-1.8759139824,1.316282696-6.5849930335,14.5854607696-16.2215008321,25.4548819769-28.9157177702,32.6028435444-13.0545260076,7.3470596583-27.9386699846,11.0231119387-44.6642033701,11.0231119387-10.1385723689,0-19.7070707565-1.9658303366-28.6987686263-5.8916052902-8.9984244064-3.9257749536-16.7911171178-9.1228653344-23.3780781344-15.5845446059-6.5920059191-6.4625200885-11.7832105803-13.9340206749-15.5837037888-22.4271140152-3.8021748426-8.4872076208-5.7024214468-17.2956073668-5.7024214468-26.4184727012ZM406.6857227029,228.0702880682c0,6.0816299506,1.330172623,11.6587696523,3.9905178689,16.7255333855,2.6620268801,5.0718086357,6.2724954281,9.5029146553,10.8347689124,13.3034078637,4.5605918501,3.8013340255,10.0074049042,6.7828713966,16.3438024305,8.932840674,6.3313526238,2.1566958141,13.1739220332,3.2312600443,20.5260265939,3.2312600443,12.1649415354,0,23.3124944021-3.9257749536,33.451066771-11.7832105803,10.0238567147-7.7686969178,17.4503598477-17.896903569,22.2713672253-30.385434171.1024437324-.2653743474.1549059728-.5506053315.1549059728-.8350666867v-61.9792908755c0-1.6641486711-1.7496400241-2.7504364973-3.2297703953-1.9897756767-5.0433820673,2.5918684033-10.6799520756,4.9268463416-16.9162068778,7.0021494493-7.6026680511,2.5359043179-15.3936791284,5.0070657204-23.3763965003,7.4126433906-7.9827173719,2.4106225727-15.7754100834,5.0062249033-23.3780781344,7.7918518944-7.6009864169,2.7915127106-14.4435558263,6.0824707677-20.5260265939,9.8829639761-6.0807891335,3.8013340255-10.964254743,8.30306868-14.6335804867,13.4942733412-3.6777339145,5.1970903809-5.5123967864,11.594026737-5.5123967864,19.195853971Z"/>
    <path class="cls-1" d="M280.4878953098,303.3335066688c-9.6324004858,0-17.7395587858-.9501233021-24.3265198024-2.8512107234-6.5936875532-1.9002466042-11.9732352408-4.9414819881-16.1554594042-9.1228653344-4.1805425293-4.1805425293-7.2226187302-9.6273555833-9.1228653344-16.3446432476-1.9002466042-6.7114019447-2.8503699063-15.0144706246-2.8503699063-24.8974346007v-117.8835030652c0-1.2336800893-1.0000953131-2.2337754025-2.2337754025-2.2337754025h-26.7015384068c-1.2336800893,0-2.2337754025-1.0000953131-2.2337754025-2.2337754025v-38.8658072885c0-1.2336800893,1.0000953132-2.2337754025,2.2337754025-2.2337754025h51.789838485c1.2336800893,0,2.2337754025-1.0000953131,2.2337754025-2.2337754025v-3.412268615c0-1.1196069119-.8288455518-2.0662633667-1.9386368765-2.2141919066l-3.7637845704-.5016899516c-6.8425694094-1.2654297077-11.7832105803-3.8013340255-14.8252867813-7.6026680511-3.0403945668-3.8013340255-4.5605918501-9.7526373285-4.5605918501-17.865681348v-24.3075662742c0-.927169021.5727519049-1.7579521844,1.4392960179-2.0877152718l41.1291902086-15.6517002908c.2537494364-.0965642676.5229772037-.1460601307.7944793846-.1460601307h1.4912624194v73.7895418398c0,1.2336800893,1.0000953131,2.2337754025,2.2337754025,2.2337754025h63.9530983862c1.2336800893,0,2.2337754025,1.0000953132,2.2337754025,2.2337754025v38.8658072885c0,1.2336800893-1.0000953131,2.2337754025-2.2337754025,2.2337754025h-63.9608666533c-1.2306422063,0-2.2294746754.9953588892-2.2337618478,2.2259936279l-.3722946084,106.867332084c0,8.6183750855,1.6446382114,14.3199557153,4.940641171,17.1055827063,3.290958057,2.7915127106,9.2473062625,4.1813833464,17.865681348,4.1813833464h46.4538110278c1.2336800893,0,2.2337754025,1.0000953131,2.2337754025,2.2337754025v38.4855898042c0,1.2336800893-1.0000953132,2.2337754025-2.2337754025,2.2337754025h-61.2790978091Z"/>
    <path class="cls-1" d="M593.8462004392,86.6667162015h40.3849955914c1.2336800893,0,2.2337754025,1.0000953132,2.2337754025,2.2337754025v43.4279126094c0,1.2336800893,1.0000953131,2.2337754025,2.2337754025,2.2337754025h3.4686460443v-1.1409887796c0-6.8417285923,1.5790544791-13.1133832033,4.7506165106-18.8158046501,3.166517129-5.7015806297,7.6026680511-10.6430626178,13.3050894979-14.8244459642,5.7007398127-4.1813833464,12.4121417573-7.4118025736,20.1459772731-9.6929393157,7.7271089791-2.2802959251,16.2799003323-3.4212847047,25.6583740595-3.4212847047h28.4058610218c1.2336800893,0,2.2337754025,1.0000953132,2.2337754025,2.2337754025v38.4855898042c0,1.2336800893-1.0000953131,2.2337754025-2.2337754025,2.2337754025h-43.9912464447c-35.9869710888,0-53.9770933649,18.7569474544-53.9770933649,56.25738929v115.2224851656c0,1.2336800893-1.0000953131,2.2337754025-2.2337754025,2.2337754025h-40.3849955914c-1.2336800893,0-2.2337754025-1.0000953132-2.2337754025-2.2337754025V88.900491604c0-1.2336800893,1.0000953132-2.2337754025,2.2337754025-2.2337754025Z"/>
    <path class="cls-1" d="M42.7918872655,234.5328081568c1.1087876008,0,2.0200274881.8185550302,2.2087222058,1.9111685241,1.6856292772,9.7604284664,7.2301044807,17.6761157337,16.637608112,23.7463647183,10.0074049042,6.4616792714,22.8651797147,9.6929393157,38.5817326024,9.6929393157,13.6834571846,0,24.5165444628-2.5300185983,32.4992618347-7.6026680511,7.9827173719-5.0659229161,13.1750545365-11.4586949294,13.1750545365-20.3318375906,0-6.3313526238-4.9578779212-12.8254033529-11.9248882586-16.3770147052-6.9720552399-3.5457256327-15.444840248-5.6086305997-25.9567354011-8.1445349176-10.5186216898-2.5300185983-21.8578808511-5.1912046613-34.0211407523-7.9827173719-12.1632599012-2.7856269911-23.507563965-6.6517039319-34.0211407523-11.5931859199-10.5169400556-4.9414819881-19.2597560692-11.4040020766-26.2267664066-19.3858786314-6.9737368741-7.9827173719-10.4530379574-18.4357553293-10.4530379574-31.3599546893,0-9.3717471906,2.1491284604-18.0557060085,6.4608384544-26.0375825633,4.3066650915-7.9827173719,10.263013297-14.9497277093,17.865681348-20.9069167319,7.6026680511-5.951303303,16.7255333855-10.6430626178,27.3685960033-14.0643473225,10.6430626178-3.4204438876,22.4262731982-5.1315066485,35.3513133752-5.1315066485,13.172240399,0,25.2127410063,1.8413894085,36.1114120169,5.5115559693,10.8919444739,3.6768930975,20.3360019335,8.8739834783,28.3187193054,15.585385423,7.9810357377,6.7172876642,14.3779720939,14.8244459642,19.195853971,24.3273606195,4.4749818232,8.8420007982,7.2029342634,18.6193902453,8.1730204803,29.3233634085.1177184114,1.2989100293-.9282034015,2.4157997845-2.2324368501,2.4157997845h-40.6395661307c-1.0472444238,0-1.9381105442-.7397033047-2.1713236859-1.7606501759-5.4625592923-23.9136730395-21.8441203397-35.8701183073-47.8958270695-35.8701183073-11.9143780451,0-21.4172927003,2.8503699063-28.5087439658,8.5519505361-7.0981778021,5.7024214468-10.6430626178,12.7341746995-10.6430626178,21.0969413923,0,6.8417285923,3.4793010833,12.1044027055,10.4530379574,15.7745692663,6.9670103374,3.6768930975,15.7081447169,6.9073123247,26.2267664066,9.6929393157,10.5135767873,2.7915127106,25.0970484359,5.5115559693,37.2603083371,8.1727420323,12.1632599012,2.6603452459,23.5025190625,6.4028220757,34.0211407523,11.2131365991,10.5118951531,4.81704106,19.2547111667,11.088695671,26.2267664066,18.8158046501,6.9670103374,7.7329946987,11.3342463182,18.1594256626,11.3342463182,31.0836250226,0,9.1228653344-3.2926717506,17.5122390206-8.1021454568,25.3637889278-4.8178818771,7.8574356268-11.4048428937,14.6344213038-19.7659279523,20.3360019335-8.3627666927,5.7024214468-18.3113144012,10.2041561013-29.840598223,13.4942733412-11.5326470901,3.29011724-27.2512217987,4.9414819881-40.6807522247,4.9414819881-14.4435558263,0-27.4980818339-1.7758056762-39.1518065837-5.3215313089-11.6587696523-3.5457256327-21.7317582888-8.5527913532-30.2189659096-15.0144706246-8.4922525233-6.4616792714-15.1447972722-14.2543719829-19.9559526127-23.3772373174C3.3712290316,256.835966354.7551639505,247.3635947842.0056604508,236.9047333381c-.091974501-1.283447727.9490632817-2.3719251814,2.2358023293-2.3719251814h40.5504244853Z"/>
    <path class="cls-2" d="M908.700284142,75.5074880777h-35.1916653746c-1.1583851092,0-1.738506949,1.4005365517-.9194055876,2.2196391222l24.8833835012,24.8834202306c.507690711.5076914604.5077843532,1.3307922756.0002091728,1.8385992403l-13.0164302911,13.0223742472c-.5077393307.50797119-1.3311643959.5080651728-1.8390196695.0002098993l-24.889741896-24.889741896c-.8191022931-.8191022931-2.2196398008-.2389806628-2.2196398008.9194049091v35.1984455554c0,.7180999019-.5821349898,1.3002348917-1.3002348917,1.3002348917h-18.4077313625c-.7180999019,0-1.3002348917-.5821349898-1.3002348917-1.3002348917v-35.2052290125c0-1.1583855719-1.4005375077-1.7385072022-2.2196398008-.919404909l-24.8899517952,24.8899517952c-.5077733102.5077733102-1.3310365079.5077733102-1.8388098181,0l-13.0160083198-13.0160083198c-.5077737748-.5077737748-.5090668727-1.3297443008-.0012924203-1.837517398,2.5025798899-2.5025732108,9.730571754-9.7305571717,16.8032953436-16.8033811535,8.7421389573-8.7420562322,19.9848918269-7.6577785246,19.9848918269-7.6577785246v-1.2452513115c0-.77194633-.6257861445-1.3977324744-1.3977324744-1.3977324744h-46.6238459446c-.7180999019,0-1.3002348917-.5821349898-1.3002348917-1.3002348917v-18.4145148196c0-.7180999019.5821349898-1.3002348917,1.3002348917-1.3002348917h35.1916620983c1.1583855719,0,1.7385072022-1.4005375076.9194049091-2.2196398008l-24.8831696176-24.8831696176c-.5077728105-.5077728105-.5077733834-1.3310350215-.0000012794-1.8388085387l13.0227945214-13.0228307662c.5077736331-.5077750463,1.3310388639-.5077750117,1.8388124543.0000000773l24.889949159,24.8900226195c.8191017385.819104156,2.2196411575.2389829447,2.2196411575-.9194035523V1.3002348917c0-.7180999019.5821349898-1.3002348917,1.3002348917-1.3002348917h18.4077313625c.7180999019,0,1.3002348917.5821349898,1.3002348917,1.3002348917v35.1984390043c0,1.158386497,1.400539419,1.7385077083,2.2196411575.9194035523l24.8899491585-24.8900226189c.5077735906-.5077750892,1.3310388219-.5077751236,1.8388124549-.0000000768l13.0160112102,13.0160474527c.5077720122.5077734261.5090650218,1.3297419872.0012924265,1.8375148302-2.5025759535,2.5025771737-9.7305720004,9.7305796109-16.8032995971,16.8033406716-8.7421389573,8.7420562323-19.9848918269,7.6578612497-19.9848918269,7.6578612497v1.3494496263c0,.7180999019.5821349898,1.3002348917,1.3002348917,1.3002348917h46.7145600703c.7180999019,0,1.3002348917.5821349898,1.3002348917,1.3002348917v18.4145148196c0,.7180999019-.5821349898,1.3002348917-1.3002348917,1.3002348917Z"/>
  </g>
</svg>