<?xml version="1.0" encoding="UTF-8"?>
<svg id="Layer_2" data-name="Layer 2" xmlns="http://www.w3.org/2000/svg" viewBox="0 0 1415.75 663.93">
  <defs>
    <style>
      .cls-1 {
        fill: #10069f;
      }

      .cls-2 {
        fill: #0088e0;
      }
    </style>
  </defs>
  <g id="Layer_1-2" data-name="Layer 1">
    <g>
      <path class="cls-1" d="M561.74,371.38c0-24.04,5.22-43.85,15.67-59.43,10.44-15.57,23.66-28.28,39.62-38.14,15.97-9.85,33.41-17.64,52.34-23.36,18.92-5.71,36.96-10.94,54.11-15.67,17.15-4.73,32.03-9.56,44.65-14.49,9.53-3.72,16.36-7.17,20.5-12.37,1.82-2.29.2-5.67-2.72-5.67h-201.81c-1.92,0-3.47-1.56-3.47-3.48v-60.47c0-1.92,1.56-3.48,3.47-3.48h282.28c1.92,0,3.48,1.56,3.48,3.48v330.13c0,1.92-1.56,3.48-3.48,3.48h-62.83c-1.92,0-3.48-1.56-3.48-3.48v-54.31c0-2.01-1.7-3.6-3.71-3.47l-3.09.21c-1.28.08-2.39.88-2.92,2.05-10.24,22.69-25.24,39.6-44.99,50.72-20.31,11.43-43.47,17.15-69.49,17.15-15.77,0-30.66-3.06-44.65-9.17-14-6.11-26.12-14.19-36.37-24.25-10.26-10.05-18.33-21.68-24.25-34.89-5.92-13.21-8.87-26.91-8.87-41.1M632.71,354.83c0,9.46,2.07,18.14,6.21,26.02,4.14,7.89,9.76,14.78,16.86,20.7,7.1,5.91,15.57,10.55,25.43,13.9,9.85,3.35,20.5,5.03,31.93,5.03,18.93,0,36.27-6.11,52.04-18.33,15.6-12.09,27.15-27.84,34.65-47.27.16-.41.24-.86.24-1.3v-96.43c0-2.59-2.72-4.28-5.02-3.1-7.85,4.03-16.62,7.67-26.32,10.89-11.83,3.95-23.95,7.79-36.37,11.53-12.42,3.75-24.54,7.79-36.37,12.12-11.83,4.34-22.47,9.46-31.93,15.38-9.46,5.91-17.06,12.92-22.77,20.99-5.72,8.09-8.58,18.04-8.58,29.86"/>
      <path class="cls-1" d="M436.38,471.92c-14.99,0-27.6-1.48-37.85-4.44-10.26-2.96-18.63-7.69-25.13-14.19-6.5-6.5-11.24-14.98-14.19-25.43-2.96-10.44-4.43-23.36-4.43-38.73v-183.4c0-1.92-1.56-3.47-3.48-3.47h-41.54c-1.92,0-3.47-1.56-3.47-3.48v-60.47c0-1.92,1.56-3.48,3.47-3.48h80.57c1.92,0,3.48-1.56,3.48-3.48v-5.31c0-1.74-1.29-3.21-3.02-3.44l-5.85-.78c-10.65-1.97-18.33-5.91-23.07-11.83-4.73-5.92-7.09-15.17-7.09-27.8v-37.82c0-1.44.89-2.74,2.24-3.25l63.99-24.35c.4-.15.81-.23,1.24-.23h2.32v114.8c0,1.92,1.56,3.48,3.48,3.48h99.5c1.92,0,3.48,1.56,3.48,3.48v60.47c0,1.92-1.56,3.48-3.48,3.48h-99.51c-1.92,0-3.47,1.55-3.48,3.46l-.58,166.26c0,13.41,2.56,22.28,7.69,26.61,5.12,4.34,14.39,6.51,27.79,6.51h72.27c1.92,0,3.48,1.56,3.48,3.48v59.87c0,1.92-1.56,3.48-3.48,3.48h-95.34Z"/>
      <path class="cls-1" d="M923.89,134.83h62.83c1.92,0,3.48,1.56,3.48,3.48v67.56c0,1.92,1.56,3.47,3.48,3.47h5.4v-1.78c0-10.64,2.46-20.4,7.39-29.27,4.93-8.87,11.83-16.56,20.7-23.06,8.87-6.5,19.31-11.53,31.34-15.08,12.02-3.55,25.33-5.32,39.92-5.32h44.19c1.92,0,3.48,1.56,3.48,3.48v59.87c0,1.92-1.56,3.48-3.48,3.48h-68.44c-55.99,0-83.98,29.18-83.98,87.52v179.26c0,1.92-1.56,3.48-3.48,3.48h-62.83c-1.92,0-3.48-1.56-3.48-3.48V138.31c0-1.92,1.56-3.48,3.48-3.48"/>
      <path class="cls-1" d="M66.57,364.88c1.73,0,3.14,1.27,3.44,2.97,2.62,15.19,11.25,27.5,25.88,36.94,15.57,10.05,35.57,15.08,60.02,15.08,21.29,0,38.14-3.94,50.56-11.83,12.42-7.88,20.5-17.83,20.5-31.63,0-9.85-7.71-19.95-18.55-25.48-10.85-5.52-24.03-8.73-40.38-12.67-16.37-3.94-34.01-8.08-52.93-12.42-18.92-4.33-36.57-10.35-52.93-18.04-16.36-7.69-29.96-17.74-40.8-30.16-10.85-12.42-16.26-28.68-16.26-48.79,0-14.58,3.34-28.09,10.05-40.51,6.7-12.42,15.97-23.26,27.79-32.53,11.83-9.26,26.02-16.56,42.58-21.88,16.56-5.32,34.89-7.98,55-7.98s39.23,2.87,56.18,8.58c16.94,5.72,31.64,13.81,44.06,24.25,12.42,10.45,22.37,23.06,29.86,37.85,6.96,13.76,11.21,28.97,12.72,45.62.18,2.02-1.44,3.76-3.47,3.76h-63.23c-1.63,0-3.02-1.15-3.38-2.74-8.5-37.2-33.98-55.81-74.52-55.81-18.54,0-33.32,4.43-44.35,13.3-11.04,8.87-16.56,19.81-16.56,32.82,0,10.64,5.41,18.83,16.26,24.54,10.84,5.72,24.44,10.75,40.8,15.08,16.36,4.34,39.05,8.58,57.97,12.72,18.92,4.14,36.57,9.96,52.93,17.44,16.35,7.49,29.96,17.25,40.8,29.27,10.84,12.03,17.63,28.25,17.63,48.36,0,14.19-5.12,27.24-12.6,39.46-7.5,12.23-17.74,22.77-30.75,31.64-13.01,8.87-28.49,15.88-46.42,21-17.94,5.12-42.4,7.69-63.29,7.69-22.47,0-42.78-2.76-60.91-8.28-18.14-5.52-33.81-13.31-47.01-23.36-13.21-10.05-23.56-22.18-31.05-36.37C5.24,399.58,1.17,384.84,0,368.57c-.14-2,1.48-3.69,3.48-3.69h63.09Z"/>
      <path class="cls-2" d="M1413.73,117.47h-54.75c-1.8,0-2.7,2.18-1.43,3.45l38.71,38.71c.79.79.79,2.07,0,2.86l-20.25,20.26c-.79.79-2.07.79-2.86,0l-38.72-38.72c-1.27-1.27-3.45-.37-3.45,1.43v54.76c0,1.12-.91,2.02-2.02,2.02h-28.64c-1.12,0-2.02-.91-2.02-2.02v-54.77c0-1.8-2.18-2.7-3.45-1.43l-38.72,38.72c-.79.79-2.07.79-2.86,0l-20.25-20.25c-.79-.79-.79-2.07,0-2.86,3.89-3.89,15.14-15.14,26.14-26.14,13.6-13.6,31.09-11.91,31.09-11.91v-1.94c0-1.2-.97-2.17-2.17-2.17h-72.54c-1.12,0-2.02-.91-2.02-2.02v-28.65c0-1.12.91-2.02,2.02-2.02h54.75c1.8,0,2.71-2.18,1.43-3.45l-38.71-38.71c-.79-.79-.79-2.07,0-2.86l20.26-20.26c.79-.79,2.07-.79,2.86,0l38.72,38.72c1.27,1.27,3.45.37,3.45-1.43V2.02c0-1.12.91-2.02,2.02-2.02h28.64c1.12,0,2.02.91,2.02,2.02v54.76c0,1.8,2.18,2.71,3.45,1.43l38.72-38.72c.79-.79,2.07-.79,2.86,0l20.25,20.25c.79.79.79,2.07,0,2.86-3.89,3.89-15.14,15.14-26.14,26.14-13.6,13.6-31.09,11.91-31.09,11.91v2.1c0,1.12.91,2.02,2.02,2.02h72.68c1.12,0,2.02.91,2.02,2.02v28.65c0,1.12-.91,2.02-2.02,2.02"/>
      <g>
        <path class="cls-2" d="M562.25,627.42c-16.69,0-22.8-6.11-22.8-23.13v-52.87h-13.55v-18.17h24.45v-3.3l-2.48-.33c-5.95-.99-8.43-3.96-8.43-11.07v-11.23l18.67-7.1h.83v33.04h26.1v18.17h-26.1l-.17,48.08c0,7.43,2.48,9.25,9.91,9.25h19.99v18.67h-26.43Z"/>
        <path class="cls-2" d="M600.58,533.25h19.49v20.82h2.48v-.5c0-11.89,11.56-20.32,27.75-20.32h9.58v18.67h-16.36c-15.69,0-23.46,8.26-23.46,24.45v51.05h-19.49v-94.17Z"/>
        <path class="cls-2" d="M732.74,551.42h-55.34v-18.17h77.15v94.17h-19.49v-17.18l-2.48.17c-5.78,13.22-17.84,19.5-32.22,19.5-17.84,0-31.88-14.7-31.88-30.56,0-40.48,58.81-33.7,64.27-47.91ZM710.77,613.04c10.41,0,20.16-7.6,24.29-18.5v-28.75c-15.2,8.76-46.75,9.42-46.75,28.91,0,10.41,9.58,18.34,22.47,18.34Z"/>
        <path class="cls-2" d="M779,492.61c5.95,0,10.41,4.63,10.41,10.57s-4.3,10.57-10.41,10.57-10.74-4.3-10.74-10.57,4.63-10.57,10.74-10.57ZM769.09,533.25h19.49v94.17h-19.49v-94.17Z"/>
        <path class="cls-2" d="M802.96,533.25h19.33v21.48h2.64v-.5c0-12.72,14.04-23.46,30.4-23.46,18.67,0,33.21,14.37,33.21,34.03v62.61h-19.49v-58.81c0-12.39-8.1-20.98-19.66-20.98-15.69,0-27.09,13.38-27.09,31.55v48.24h-19.33v-94.17Z"/>
        <path class="cls-2" d="M912.82,492.61c5.95,0,10.41,4.63,10.41,10.57s-4.3,10.57-10.41,10.57-10.74-4.3-10.74-10.57,4.63-10.57,10.74-10.57ZM902.91,533.25h19.49v94.17h-19.49v-94.17Z"/>
        <path class="cls-2" d="M936.78,533.25h19.33v21.48h2.64v-.5c0-12.72,14.04-23.46,30.4-23.46,18.67,0,33.21,14.37,33.21,34.03v62.61h-19.49v-58.81c0-12.39-8.1-20.98-19.66-20.98-15.69,0-27.09,13.38-27.09,31.55v48.24h-19.33v-94.17Z"/>
        <path class="cls-2" d="M1078.53,533.25h56v18.17h-27.09v2.64c11.89,3.63,19.66,15.53,19.66,30.23,0,25.77-19.66,44.77-46.75,44.77l-16.69,13.22v2.64h62.94v19h-90.37v-18.5l26.6-20.16c-17.51-5.95-28.58-22.3-28.58-44.11,0-27.42,18.83-47.91,44.28-47.91ZM1081.01,610.07c15.7,0,25.61-11.07,25.61-28.91s-9.58-29.08-26.1-29.08-25.94,11.56-25.94,29.08,10.57,28.91,26.43,28.91Z"/>
      </g>
    </g>
  </g>
</svg>
