<?xml version="1.0" encoding="UTF-8"?>
<svg id="Layer_2" data-name="Layer 2" xmlns="http://www.w3.org/2000/svg" viewBox="0 0 1420.51 666.01">
  <defs>
    <style>
      .cls-1 {
        fill: #10069f;
      }

      .cls-2 {
        fill: #6d8d9c;
      }
    </style>
  </defs>
  <g id="Layer_1-2" data-name="Layer 1">
    <g>
      <path class="cls-1" d="M563.63,372.63c0-24.12,5.24-44,15.72-59.63,10.48-15.62,23.74-28.38,39.76-38.27,16.02-9.88,33.52-17.7,52.51-23.44,18.99-5.73,37.08-10.98,54.29-15.72,17.21-4.75,32.13-9.59,44.8-14.54,9.57-3.74,16.42-7.19,20.56-12.41,1.82-2.29.2-5.69-2.73-5.69h-202.49c-1.92,0-3.49-1.56-3.49-3.49v-60.67c0-1.93,1.56-3.49,3.49-3.49h283.23c1.93,0,3.49,1.56,3.49,3.49v331.24c0,1.93-1.56,3.49-3.49,3.49h-63.04c-1.92,0-3.49-1.56-3.49-3.49v-54.49c0-2.02-1.71-3.61-3.72-3.48l-3.1.21c-1.28.08-2.4.88-2.93,2.05-10.28,22.77-25.32,39.74-45.14,50.89-20.38,11.47-43.61,17.21-69.72,17.21-15.83,0-30.76-3.07-44.8-9.2-14.05-6.13-26.21-14.24-36.49-24.33-10.29-10.09-18.39-21.75-24.33-35.01-5.93-13.25-8.9-27-8.9-41.24M634.84,356.02c0,9.49,2.08,18.2,6.23,26.11,4.16,7.92,9.79,14.83,16.91,20.77,7.12,5.93,15.62,10.59,25.51,13.94,9.88,3.37,20.56,5.04,32.04,5.04,18.99,0,36.39-6.13,52.22-18.39,15.65-12.13,27.24-27.94,34.77-47.43.16-.41.24-.86.24-1.3v-96.75c0-2.6-2.73-4.29-5.04-3.11-7.87,4.05-16.67,7.69-26.41,10.93-11.87,3.96-24.03,7.82-36.49,11.57-12.46,3.76-24.62,7.81-36.49,12.16-11.87,4.36-22.55,9.49-32.04,15.43-9.49,5.93-17.11,12.96-22.84,21.06-5.74,8.11-8.6,18.1-8.6,29.97"/>
      <path class="cls-1" d="M437.84,473.51c-15.04,0-27.69-1.48-37.97-4.45-10.29-2.97-18.69-7.71-25.22-14.24-6.53-6.53-11.28-15.03-14.24-25.51-2.97-10.48-4.45-23.44-4.45-38.86v-184.02c0-1.92-1.56-3.49-3.49-3.49h-41.68c-1.92,0-3.49-1.56-3.49-3.49v-60.67c0-1.93,1.56-3.49,3.49-3.49h80.84c1.93,0,3.49-1.56,3.49-3.49v-5.33c0-1.75-1.29-3.23-3.03-3.46l-5.87-.78c-10.68-1.97-18.39-5.93-23.14-11.87-4.75-5.93-7.12-15.22-7.12-27.89v-37.94c0-1.45.89-2.74,2.25-3.26l64.2-24.43c.4-.15.82-.23,1.24-.23h2.33v115.18c0,1.93,1.56,3.49,3.49,3.49h99.83c1.93,0,3.49,1.56,3.49,3.49v60.67c0,1.92-1.56,3.49-3.49,3.49h-99.84c-1.92,0-3.48,1.55-3.49,3.47l-.58,166.82c0,13.45,2.57,22.35,7.71,26.7,5.14,4.36,14.43,6.53,27.89,6.53h72.51c1.93,0,3.49,1.56,3.49,3.49v60.08c0,1.93-1.56,3.49-3.49,3.49h-95.66Z"/>
      <path class="cls-1" d="M927,135.29h63.04c1.93,0,3.49,1.56,3.49,3.49v67.79c0,1.92,1.56,3.49,3.49,3.49h5.41v-1.78c0-10.68,2.46-20.47,7.42-29.37,4.94-8.9,11.87-16.61,20.77-23.14,8.9-6.53,19.38-11.57,31.45-15.13,12.06-3.56,25.41-5.34,40.05-5.34h44.34c1.93,0,3.49,1.56,3.49,3.49v60.08c0,1.93-1.56,3.49-3.49,3.49h-68.67c-56.18,0-84.26,29.28-84.26,87.82v179.86c0,1.93-1.56,3.49-3.49,3.49h-63.04c-1.93,0-3.49-1.56-3.49-3.49V138.78c0-1.93,1.56-3.49,3.49-3.49"/>
      <path class="cls-1" d="M66.8,366.11c1.73,0,3.15,1.28,3.45,2.98,2.63,15.24,11.29,27.59,25.97,37.07,15.62,10.09,35.69,15.13,60.23,15.13,21.36,0,38.27-3.95,50.73-11.87,12.46-7.91,20.57-17.89,20.57-31.74,0-9.88-7.74-20.02-18.61-25.56-10.88-5.54-24.11-8.76-40.52-12.71-16.42-3.95-34.12-8.1-53.11-12.46-18.99-4.35-36.7-10.38-53.11-18.1-16.42-7.71-30.06-17.8-40.94-30.26-10.89-12.46-16.32-28.78-16.32-48.95,0-14.63,3.35-28.19,10.09-40.65,6.72-12.46,16.02-23.34,27.89-32.64,11.87-9.29,26.11-16.61,42.72-21.95,16.61-5.34,35.01-8.01,55.18-8.01s39.36,2.88,56.37,8.6c17,5.74,31.74,13.85,44.2,24.33,12.46,10.49,22.44,23.14,29.97,37.98,6.99,13.8,11.24,29.06,12.76,45.77.18,2.03-1.45,3.77-3.48,3.77h-63.44c-1.63,0-3.03-1.16-3.39-2.75-8.53-37.33-34.1-55.99-74.77-55.99-18.6,0-33.43,4.45-44.5,13.35-11.08,8.9-16.61,19.88-16.61,32.93,0,10.68,5.43,18.89,16.32,24.62,10.88,5.74,24.52,10.78,40.94,15.13,16.41,4.36,39.18,8.6,58.16,12.76,18.99,4.15,36.69,10,53.11,17.5,16.41,7.52,30.06,17.31,40.94,29.37,10.88,12.07,17.69,28.35,17.69,48.52,0,14.24-5.14,27.34-12.65,39.59-7.52,12.27-17.8,22.85-30.85,31.74-13.05,8.9-28.58,15.93-46.58,21.07-18,5.14-42.54,7.71-63.5,7.71-22.55,0-42.92-2.77-61.12-8.31-18.2-5.54-33.92-13.35-47.17-23.44-13.26-10.09-23.64-22.25-31.15-36.49C5.26,400.92,1.18,386.14,0,369.81c-.14-2,1.48-3.7,3.49-3.7h63.3Z"/>
      <path class="cls-2" d="M1418.49,117.87h-54.93c-1.81,0-2.71,2.19-1.43,3.47l38.84,38.84c.79.79.79,2.08,0,2.87l-20.32,20.33c-.79.79-2.08.79-2.87,0l-38.85-38.85c-1.28-1.28-3.46-.37-3.46,1.44v54.94c0,1.12-.91,2.03-2.03,2.03h-28.73c-1.12,0-2.03-.91-2.03-2.03v-54.96c0-1.81-2.19-2.71-3.47-1.43l-38.85,38.85c-.79.79-2.08.79-2.87,0l-20.32-20.32c-.79-.79-.79-2.08,0-2.87,3.91-3.91,15.19-15.19,26.23-26.23,13.65-13.65,31.2-11.95,31.2-11.95v-1.94c0-1.21-.98-2.18-2.18-2.18h-72.78c-1.12,0-2.03-.91-2.03-2.03v-28.75c0-1.12.91-2.03,2.03-2.03h54.93c1.81,0,2.71-2.19,1.44-3.47l-38.84-38.84c-.79-.79-.79-2.08,0-2.87l20.33-20.33c.79-.79,2.08-.79,2.87,0l38.85,38.85c1.28,1.28,3.47.37,3.47-1.44V2.03c0-1.12.91-2.03,2.03-2.03h28.73c1.12,0,2.03.91,2.03,2.03v54.94c0,1.81,2.19,2.71,3.46,1.44l38.85-38.85c.79-.79,2.08-.79,2.87,0l20.32,20.32c.79.79.79,2.07,0,2.87-3.91,3.91-15.19,15.19-26.23,26.23-13.65,13.65-31.2,11.95-31.2,11.95v2.11c0,1.12.91,2.03,2.03,2.03h72.92c1.12,0,2.03.91,2.03,2.03v28.75c0,1.12-.91,2.03-2.03,2.03"/>
      <g>
        <path class="cls-2" d="M485.56,632.02c-15.58,0-30-11.6-30.17-24.04h-2.49v54.71h-19.56v-127.64h19.56l-.17,21.55h2.82c0-12.6,14.26-24.04,30-24.04,24.53,0,39.62,18.9,39.62,49.73s-16.41,49.73-39.62,49.73ZM479.43,549.8c-15.75,0-26.69,13.26-26.69,32.66s10.94,32.33,26.85,32.33,25.69-13.1,25.69-32.82-10.11-32.16-25.86-32.16Z"/>
        <path class="cls-2" d="M537.11,535.05h19.56v20.89h2.49v-.5c0-11.94,11.6-20.39,27.85-20.39h9.61v18.73h-16.41c-15.75,0-23.54,8.29-23.54,24.53v51.22h-19.56v-94.49Z"/>
        <path class="cls-2" d="M653.81,532.56c28.35,0,48.57,20.39,48.57,49.57s-20.56,49.9-48.57,49.9-48.57-20.56-48.57-49.9,20.56-49.57,48.57-49.57ZM654.14,612.96c16.58,0,27.85-12.43,27.85-30.67s-10.94-30.67-28.18-30.67-28.18,12.6-28.18,30.67,12.27,30.67,28.51,30.67Z"/>
        <path class="cls-2" d="M712.82,647.61c8.79,0,11.11-2.16,11.11-10.28v-102.28h19.73v105.1c0,18.9-7.29,25.86-27.19,25.86h-20.39v-18.4h16.74ZM733.88,494.27c6.13,0,11.11,5.14,11.11,11.11,0,6.3-4.97,11.27-11.11,11.27s-11.27-4.97-11.27-11.27c0-5.97,4.97-11.11,11.27-11.11Z"/>
        <path class="cls-2" d="M860.03,579.97v8.79h-72.28c2.32,14.92,12.43,24.7,27.19,24.7,13.26,0,24.04-7.29,25.53-17.24h19.56c-2.49,22.54-19.4,35.81-45.59,35.81-28.35,0-47.58-20.39-47.58-49.9s19.06-49.57,47.08-49.57,46.08,19.4,46.08,47.41ZM788.08,573.84h50.73c-1.66-13.76-10.61-22.21-24.2-22.21s-23.71,8.79-26.52,22.21Z"/>
        <path class="cls-2" d="M917.38,632.02c-27.68,0-47.08-20.39-47.08-49.9s19.23-49.57,47.08-49.57c25.53,0,42.6,12.76,45.59,37.63h-19.89c-2.65-11.44-12.1-18.57-24.87-18.57-17.07,0-27.52,12.1-27.52,30.67s10.94,30.67,27.52,30.67c12.93,0,21.88-6.8,24.87-18.73h19.89c-2.82,24.87-20.22,37.8-45.59,37.8Z"/>
        <path class="cls-2" d="M1011.37,629.54c-16.74,0-22.88-6.13-22.88-23.21v-53.05h-13.59v-18.24h24.53v-3.31l-2.49-.33c-5.97-.99-8.46-3.98-8.46-11.11v-11.27l18.73-7.13h.83v33.15h26.19v18.24h-26.19l-.17,48.24c0,7.46,2.49,9.28,9.95,9.28h20.06v18.73h-26.52Z"/>
        <path class="cls-2" d="M1067.73,599.53c1.16,9.28,10.61,15.42,24.2,15.42,11.94,0,19.4-4.81,19.4-12.43,0-16.58-61.67-6.96-61.67-41.11,0-16.25,15.58-28.84,37.96-28.84s38.62,13.26,40.12,33.65h-19.56c-2.16-10.78-9.45-16.41-21.05-16.41-10.28,0-17.08,5.64-17.08,12.93,0,17.74,61.67,7.62,61.67,41.28,0,15.91-17.57,28.02-41.11,28.02-25.03,0-41.61-12.76-42.44-32.49h19.56Z"/>
      </g>
    </g>
  </g>
</svg>
