<?xml version="1.0" encoding="UTF-8"?>
<svg id="Layer_2" data-name="Layer 2" xmlns="http://www.w3.org/2000/svg" viewBox="0 0 93.1816609641 43.5345640918">
  <defs>
    <style>
      .cls-1 {
        fill: #ff9719;
      }

      .cls-2 {
        fill: #00003f;
      }
    </style>
  </defs>
  <g id="Layer_1-2" data-name="Layer 1">
    <g>
      <path class="cls-2" d="M36.9727617788,24.443619587c0-1.5823851958.3437010556-2.8863312098,1.0314475568-3.9117519445.6872299164-1.024731955,1.5569864455-1.8615992548,2.607892028-2.510515802,1.0509055825-.648313865,2.1991012934-1.1609381349,3.4447593278-1.5374423223,1.2454858394-.3758154078,2.4325976018-.7200330482,3.561335287-1.0314475568s2.108010182-.6288558393,2.9386784648-.953615454c.6274171196-.2449933059,1.0769995161-.471583472,1.3489702064-.8141903792.119475357-.150505492.0128885946-.3729902611-.1792734831-.3729902611h-13.2824849756c-.1263255981,0-.2287327291-.102407131-.2287327291-.2287327291v-3.979756497c0-.1263255981.102407131-.2287327291.2287327291-.2287327291h18.5788217269c.1263255981,0,.2287327291.102407131.2287327291.2287327291v21.7286443177c0,.1263255981-.102407131.2287327291-.2287327291.2287327291h-4.1354895805c-.1263255981,0-.2287327291-.102407131-.2287327291-.2287327291v-3.574736086c0-.1323136758-.111927182-.237027497-.2439478039-.2282261222l-.2033213872.0135547591c-.0840415155.0056027677-.1574302027.0580169767-.1920886604.1347838879-.6742859762,1.4935128409-1.6610390426,2.6065129993-2.9608934868,3.3384454735-1.3367491458.7523195953-2.860846362,1.1287376853-4.573497013,1.1287376853-1.0381631586,0-2.0179522401-.2012958587-2.9386784648-.603284894-.9214150044-.4019890353-1.7193662528-.9341574283-2.3938537453-1.5958163994-.6750040772-.6617450686-1.2065697881-1.4268070877-1.5957303019-2.2964775194-.3893327088-.8690677494-.5839129658-1.7710247281-.5839129658-2.7051821564ZM41.6435489203,23.3537979531c0,.6227429197.1362061799,1.1938273641.4086185396,1.712650651.2725845547.5193398717.6422870429.9730734797,1.1094518545,1.3622339936.4669926167.3892466114,1.024731955.6945482004,1.6735624047.9146994026.648313865.2208399819,1.3489749849.3308725343,2.1018111649.3308725343,1.2456580343,0,2.3871381435-.4019890353,3.4253013021-1.206569788,1.0264165771-.7954941422,1.7868709753-1.8325958786,2.2805294575-3.1113885827.0104899689-.0271736356.0158619644-.0563805385.0158619644-.0855086335v-6.3465164562c0-.1704044493-.1791585391-.2816374671-.3307199982-.2037477986-.5164290658.2654005111-1.0935990174.5044961138-1.7321751154.7170016966-.7784932227.2596699358-1.5762722763.5127103673-2.3936815504.759035197-.8174092741.2468414145-1.6153605226.5126242699-2.3938537453.797865151-.7783210278.2858435633-1.4789821478.6228290172-2.101811165,1.0119895311-.6226568222.3892466114-1.1227108631.850212406-1.4984401735,1.3817781168-.3765902849.532168393-.5644549401,1.1871978598-.5644549401,1.9656049851Z"/>
      <path class="cls-2" d="M28.7212231407,31.0605536879c-.9863324884,0-1.8164841864-.0972901285-2.4909716789-.2919564829-.6751762721-.194580257-1.2260278137-.5059947655-1.6542765739-.9341574283-.4280765653-.4280765653-.7395771714-.9858159036-.9341574283-1.6736485022-.1945802569-.6872299164-.2918703854-1.5374423223-.2918703854-2.5494318534v-12.0709608249c0-.1263255981-.1024071311-.2287327291-.2287327291-.2287327291h-2.7341673406c-.1263255981,0-.2287327291-.102407131-.2287327291-.2287327291v-3.979756497c0-.1263255981.102407131-.2287327291.2287327291-.2287327291h5.3031433171c.1263255981,0,.2287327291-.102407131.2287327291-.2287327291v-.3494073361c0-.1146448046-.0848716057-.211579937-.1985113199-.2267274306l-.3854016459-.0513717322c-.7006611199-.1295766755-1.206569788-.3892466114-1.5180703941-.7784932227-.3113284111-.3892466114-.4669926167-.998644425-.4669926167-1.8293988052v-2.4890308874c0-.0949396704.0586482894-.1800096824.1473801286-.2137765557l4.2115209581-1.602692965c.0259832752-.0098879272.0535514909-.0149561734.0813526005-.0149561734h.1527013516v7.5558551084c0,.1263255981.102407131.2287327291.2287327291.2287327291h6.5486291566c.1263255981,0,.2287327291.102407131.2287327291.2287327291v3.979756497c0,.1263255981-.102407131.2287327291-.2287327291.2287327291h-6.5494246067c-.1260145268,0-.228292346.1019221337-.2287313412.2279358959l-.0381219892,10.9429338754c0,.882498953.1684066295,1.4663258213.5059086681,1.7515667024.3369854539.2858435633.9468998522.4281626628,1.8293988052.4281626628h4.7567481327c.1263255981,0,.2287327291.102407131.2287327291.2287327291v3.9408232261c0,.1263255981-.102407131.2287327291-.2287327291.2287327291h-6.2748185268Z"/>
      <path class="cls-2" d="M60.808289838,8.8744439119h4.1353173856c.1263255981,0,.2287327291.102407131.2287327291.2287327291v4.4469040891c0,.1263255981.102407131.2287327291.2287327291.2287327291h.3551802367v-.1168342516c0-.7005750225.1616910277-1.3427759679.4864506424-1.9266889337.32424303-.5838268683.7784932227-1.0898216339,1.3624061885-1.5179842966.5837407709-.4281626628,1.2709706872-.7589490996,2.0628951136-.9925315054.7912356466-.2334963083,1.6670189979-.35033056,2.6273500536-.35033056h2.9086854961c.1263255981,0,.2287327291.102407131.2287327291.2287327291v3.9408232261c0,.1263255981-.102407131.2287327291-.2287327291.2287327291h-4.5045879929c-3.6849712379,0-5.527112467,1.9206621116-5.527112467,5.7606087754v11.7984795872c0,.1263255981-.102407131.2287327291-.2287327291.2287327291h-4.1353173856c-.1263255981,0-.2287327291-.102407131-.2287327291-.2287327291V9.103176641c0-.1263255981.102407131-.2287327291.2287327291-.2287327291Z"/>
      <path class="cls-2" d="M4.3817767658,24.0155430217c.1135369356,0,.2068455046.0838178833.2261673476.1956986328.1726040069.999442217.7403436925,1.8099877846,1.7036473342,2.4315653233,1.024731955.6616589711,2.3413342954.9925315054,3.9506679959.9925315054,1.401150045,0,2.5104297046-.2590672536,3.3278389787-.7784932227.8174092741-.5187371895,1.3490909503-1.1733402385,1.3490909503-2.0819267215,0-.648313865-.507673666-1.3132875883-1.2210772098-1.6769632544-.7139201286-.3630729839-1.5815110404-.5743090296-2.6579014707-.8339789654-1.07707921-.2590672536-2.2381895397-.5315657108-3.4836753792-.8174092741-1.2454858394-.2852408811-2.4071127539-.6811169968-3.4836753792-1.1871117623-1.076907015-.5059947655-1.972148392-1.1677398341-2.6855519358-1.9850630108-.7140923235-.8174092741-1.0703636082-1.8877728823-1.0703636082-3.211176922,0-.9596422761.2200651048-1.8488568309.6615728737-2.6661800076.4409911841-.8174092741,1.0509055825-1.530812818,1.8293988052-2.1408133138.7784932227-.6093978136,1.7126506511-1.0898216339,2.8024722849-1.4401521938,1.0898216339-.3502444625,2.2963914219-.5254527912,3.619881559-.5254527912,1.34880279,0,2.5817184005.1885534348,3.6977136618.5643688426,1.1153064817.3765041875,2.0823531393.9086725805,2.8997624134,1.5959024969.8172370792.6878325986,1.472266546,1.5179842966,1.9656049851,2.4910577763.458226375.9053976381.7375615337,1.906576615.8368958122,3.0026353286.0120540559.1330049725-.0950455883.2473715473-.2285956649.2473715473h-4.1613847396c-.107235076,0-.1984574249-.0757436739-.2223378375-.1802859497-.5593517117-2.4486972556-2.2367804996-3.6730058203-4.9044067847-3.6730058203-1.2200009916,0-2.1930744713.2918703854-2.9192204391.8756972538-.7268347474.5839129658-1.0898216339,1.303946014-1.0898216339,2.1602713395,0,.7005750225.3562712846,1.2394590173,1.0703636082,1.6152744251.7134035439.3765041875,1.6084727259.7072906243,2.6855519358.9925315054,1.0765626252.2858435633,2.5698717854.5643688426,3.8153576248.8368672998,1.2454858395.2724123597,2.4065961692.655632149,3.4836753792,1.148195711,1.0763904303.4932523416,1.9716318072,1.135453287,2.6855519358,1.9266889337.7134035439.7918383289,1.1605970278,1.8594774508,1.1605970278,3.1828814905,0,.9341574283-.3371609316,1.79320724-.8296383961,2.5971853106-.4933384391.8045807528-1.1678259316,1.4985262709-2.0239790622,2.0823531393-.8563253255.5839129658-1.8750304584,1.0448787604-3.0555988139,1.3817781168-1.1809127453.3368993564-2.7904534749.5059947655-4.1656020873.5059947655-1.4789821478,0-2.8157312936-.181837833-4.0090420729-.5449108169-1.1938273641-.3630729839-2.2252749209-.8757833512-3.0943426703-1.5374423223-.8695843342-.6616589711-1.5507874284-1.4596102195-2.0434370879-2.3937676478C.3452049907,26.2993277912.0773268034,25.3293818431.0005796153,24.258421925c-.0094179471-.1314216733.0971815852-.2428789033.2289402811-.2428789033h4.1522568695Z"/>
      <path class="cls-1" d="M93.0485203292,7.7317682871h-3.6035340235c-.11861559,0-.1780185414.1434112612-.0941447153.2272852112l2.5479930578,2.5479968188c.0519861942.0519862709.0519957829.1362696307.0000214187.1882677289l-1.3328482445,1.33345689c-.0519911727.0520149145-.1363077348.0520245381-.1883107798.0000214931l-2.5486441407-2.5486441407c-.0838739216-.0838739216-.2272852807-.0244709916-.2272852807.0941446458v3.6042282961c0,.0735315422-.0596090927.1331406349-.1331406349.1331406349h-1.8849033018c-.0735315422,0-.1331406349-.0596090927-.1331406349-.1331406349v-3.6049229043c0-.1186156374-.1434113591-.1780185674-.2272852807-.0941446458l-2.5486656338,2.5486656338c-.0519946521.0519946521-.1362946394.0519946521-.1882892916,0l-1.3328050358-1.3328050358c-.0519946997-.0519946997-.0521271096-.1361623208-.0001323404-.1881569511.256257602-.2562569181.9963849681-.996383475,1.7206132711-1.7206220578.8951720481-.8951635773,2.0464003873-.7841363904,2.0464003873-.7841363904v-.1275104608c0-.0790452749-.0640788561-.1431241311-.1431241311-.1431241311h-4.7741592612c-.0735315422,0-.1331406349-.0596090927-.1331406349-.1331406349v-1.8855979099c0-.0735315422.0596090927-.1331406349.1331406349-.1331406349h3.603533688c.1186156374,0,.1780185673-.1434113591.0941446458-.2272852807l-2.5479711566-2.5479711566c-.051994601-.051994601-.0519946596-.1362944872-.000000131-.1882891606l1.333499925-1.3335036364c.0519946852-.0519948299.1362948807-.0519948264.1882895615.0000000079l2.5486653638,2.548672886c.0838738648.0838741123.2272854196.0244712253.2272854196-.0941445069V.1331406349c0-.0735315422.0596090927-.1331406349.1331406349-.1331406349h1.8849033018c.0735315422,0,.1331406349.0596090927.1331406349.1331406349v3.6042276253c0,.1186157322.1434115548.1780186192.2272854196.0941445069l2.5486653638-2.548672886c.0519946809-.0519948343.1362948764-.0519948378.1882895616-.0000000079l1.3328053318,1.3328090429c.0519945192.051994664.05212692.1361620839.0001323411.1881566882-.2562571989.2562573239-.9963849934.9963857727-1.7206137067,1.7206179126-.8951720481.8951635773-2.0464003873.7841448612-2.0464003873.7841448612v.1381800943c0,.0735315422.0596090926.1331406349.1331406349.1331406349h4.7834481492c.0735315422,0,.1331406349.0596090927.1331406349.1331406349v1.8855979099c0,.0735315422-.0596090927.1331406349-.1331406349.1331406349Z"/>
      <g>
        <path class="cls-1" d="M2.449769333,35.454974248H.1812146455v-1.017578125h5.60546875v1.017578125h-2.267578125v5.6220703125h-1.0693359375v-5.6220703125Z"/>
        <path class="cls-1" d="M14.951722458,36.6019469043c0,.3159179688-.05859375.603515625-.1767578125.8623046875-.1171875.2583007812-.2841796875.4814453125-.5.66796875-.21484375.1870117188-.47265625.3334960938-.771484375.4399414062s-.6298828125.1625976562-.9912109375.16796875v.1381835938h.146484375c.1552734375,0,.2900390625.01171875.4052734375.0341796875.1142578125.0234375.232421875.0737304688.353515625.1508789062.1201171875.0776367188.255859375.1943359375.4052734375.349609375s.3388671875.3618164062.568359375.6206054688l.87109375,1.0004882812v.04296875h-1.4140625l-1.9052734375-2.3369140625h-1.0263671875v2.3369140625h-1.060546875v-6.6396484375h2.6298828125c.3681640625,0,.703125.0532226562,1.0048828125.1596679688s.560546875.2543945312.775390625.4438476562c.2158203125.1899414062.3837890625.4169921875.5048828125.6811523438.12109375.2646484375.1806640625.5581054688.1806640625.8798828125ZM13.848206833,36.6019469043c0-.3452148438-.1162109375-.6225585938-.3486328125-.83203125-.2333984375-.2099609375-.544921875-.3149414062-.935546875-.3149414062h-1.6474609375v2.267578125h1.6474609375c.390625,0,.7021484375-.1015625.935546875-.3056640625.232421875-.2041015625.3486328125-.4760742188.3486328125-.8149414062Z"/>
        <path class="cls-1" d="M25.334534958,41.0770445605h-1.12890625l-.578125-1.6298828125h-2.767578125l-.5869140625,1.6298828125h-1.12109375l2.3369140625-6.6396484375h1.517578125l2.328125,6.6396484375ZM22.731019333,36.8348570605c-.0869140625-.2529296875-.1572265625-.462890625-.2119140625-.6298828125-.0546875-.1665039062-.09765625-.3071289062-.12890625-.4223632812-.0322265625-.1147460938-.0517578125-.2084960938-.060546875-.2802734375s-.0126953125-.1362304688-.0126953125-.1938476562v-.0947265625h-.1376953125v.0947265625c0,.0629882812-.0048828125.1293945312-.013671875.1982421875s-.02734375.158203125-.0556640625.2670898438c-.029296875.109375-.0703125.2490234375-.125.4184570312s-.1279296875.38671875-.2197265625.6508789062l-.560546875,1.5869140625h2.0947265625l-.568359375-1.5952148438Z"/>
        <path class="cls-1" d="M29.1460583955,41.0770445605v-6.6396484375h1.060546875v6.6396484375h-1.060546875Z"/>
        <path class="cls-1" d="M38.6909802705,41.0770445605l-2.078125-3.3803710938c-.1201171875-.2124023438-.22265625-.4038085938-.3056640625-.5732421875s-.1513671875-.3276367188-.203125-.4741210938-.0888671875-.2861328125-.111328125-.4184570312c-.0234375-.1318359375-.03515625-.2641601562-.03515625-.396484375v-.2412109375h-.189453125v5.4838867188h-1.060546875v-6.6396484375h1.2587890625l1.9140625,3.0610351562c.1845703125.2993164062.33203125.55078125.4443359375.7548828125s.1982421875.3833007812.2587890625.5385742188.1005859375.2993164062.12109375.4311523438c.01953125.1323242188.0302734375.2788085938.0302734375.4399414062v.25h.189453125v-5.4755859375h1.060546875v6.6396484375h-1.2939453125Z"/>
        <path class="cls-1" d="M44.477113083,41.0770445605v-6.6396484375h1.060546875v6.6396484375h-1.060546875Z"/>
        <path class="cls-1" d="M54.022034958,41.0770445605l-2.078125-3.3803710938c-.1201171875-.2124023438-.22265625-.4038085938-.3056640625-.5732421875s-.1513671875-.3276367188-.203125-.4741210938-.0888671875-.2861328125-.111328125-.4184570312c-.0234375-.1318359375-.03515625-.2641601562-.03515625-.396484375v-.2412109375h-.189453125v5.4838867188h-1.060546875v-6.6396484375h1.2587890625l1.9140625,3.0610351562c.1845703125.2993164062.33203125.55078125.4443359375.7548828125s.1982421875.3833007812.2587890625.5385742188.1005859375.2993164062.12109375.4311523438c.01953125.1323242188.0302734375.2788085938.0302734375.4399414062v.25h.189453125v-5.4755859375h1.060546875v6.6396484375h-1.2939453125Z"/>
        <path class="cls-1" d="M64.662659958,41.0770445605v-1.3364257812h-.1376953125c-.0576171875.2241210938-.1494140625.4267578125-.275390625.6079101562-.126953125.1811523438-.279296875.3349609375-.45703125.4614257812-.1787109375.1264648438-.3798828125.2241210938-.603515625.29296875-.224609375.0688476562-.4658203125.103515625-.724609375.103515625-.431640625,0-.83203125-.087890625-1.203125-.2631835938s-.6923828125-.41796875-.9658203125-.728515625-.4853515625-.6767578125-.6376953125-1.099609375c-.15234375-.4223632812-.228515625-.8779296875-.228515625-1.3666992188,0-.5.0791015625-.9614257812.2373046875-1.3837890625.1572265625-.4223632812.3779296875-.7861328125.6591796875-1.0908203125s.6181640625-.5415039062,1.0087890625-.7114257812c.390625-.1694335938.8193359375-.2543945312,1.28515625-.2543945312.390625,0,.759765625.0634765625,1.107421875.1899414062s.6572265625.3017578125.927734375.5258789062c.26953125.2241210938.4921875.4946289062.66796875.810546875.1748046875.31640625.2861328125.6640625.33203125,1.0434570312h-1.1123046875c-.0517578125-.2416992188-.13671875-.45703125-.2548828125-.6469726562-.1171875-.189453125-.2626953125-.3491210938-.435546875-.478515625-.171875-.1293945312-.36328125-.2270507812-.5732421875-.29296875s-.4296875-.0991210938-.6591796875-.0991210938c-.3046875,0-.5849609375.0600585938-.8408203125.1811523438-.255859375.1206054688-.4755859375.2856445312-.66015625.4956054688-.18359375.2099609375-.3271484375.4599609375-.4306640625.75-.103515625.2905273438-.1552734375.6079101562-.1552734375.953125,0,.3793945312.0576171875.7241210938.1728515625,1.0346679688.1142578125.310546875.2685546875.5747070312.4609375.7934570312.1923828125.2182617188.419921875.38671875.6806640625.5043945312.26171875.1176757812.5390625.1767578125.8330078125.1767578125.4306640625,0,.818359375-.1108398438,1.1640625-.33203125.3447265625-.2211914062.6171875-.5302734375.818359375-.9272460938v-.6293945312h-2.3623046875v-.8706054688h3.4150390625v3.5869140625h-1.052734375Z"/>
      </g>
    </g>
  </g>
</svg>