<?xml version="1.0" encoding="UTF-8"?>
<svg id="Layer_2" data-name="Layer 2" xmlns="http://www.w3.org/2000/svg" viewBox="0 0 93.182996013 43.2387234277">
  <defs>
    <style>
      .cls-1 {
        fill: #00ad75;
      }

      .cls-2 {
        fill: #00ad75;
      }
    </style>
  </defs>
  <g id="Layer_1-2" data-name="Layer 1">
    <g>
      <path class="cls-1" d="M36.9740968276,24.443619587c0-1.5823851958.3437010556-2.8863312098,1.0314475568-3.9117519445.6872299164-1.024731955,1.5569864455-1.8615992548,2.607892028-2.510515802,1.0509055825-.648313865,2.1991012934-1.1609381349,3.4447593278-1.5374423223,1.2454858394-.3758154078,2.4325976018-.7200330482,3.561335287-1.0314475568s2.108010182-.6288558393,2.9386784648-.953615454c.6274171196-.2449933059,1.076999516-.471583472,1.3489702064-.8141903792.119475357-.150505492.0128885946-.3729902611-.1792734831-.3729902611h-13.2824849756c-.1263255981,0-.2287327291-.102407131-.2287327291-.2287327291v-3.979756497c0-.1263255981.102407131-.2287327291.2287327291-.2287327291h18.5788217269c.1263255981,0,.2287327291.102407131.2287327291.2287327291v21.7286443177c0,.1263255981-.102407131.2287327291-.2287327291.2287327291h-4.1354895805c-.1263255981,0-.2287327291-.102407131-.2287327291-.2287327291v-3.574736086c0-.1323136758-.111927182-.237027497-.243947804-.2282261222l-.2033213872.0135547591c-.0840415155.0056027677-.1574302028.0580169767-.1920886604.1347838879-.6742859762,1.4935128409-1.6610390426,2.6065129993-2.9608934868,3.3384454735-1.3367491458.7523195953-2.860846362,1.1287376853-4.573497013,1.1287376853-1.0381631585,0-2.01795224-.2012958587-2.9386784648-.603284894-.9214150044-.4019890353-1.7193662528-.9341574283-2.3938537453-1.5958163994-.6750040772-.6617450686-1.206569788-1.4268070877-1.595730302-2.2964775194-.3893327088-.8690677494-.5839129658-1.7710247281-.5839129658-2.7051821564ZM41.6448839691,23.3537979531c0,.6227429197.1362061799,1.1938273641.4086185396,1.712650651.2725845547.5193398717.6422870429.9730734797,1.1094518545,1.3622339936.4669926167.3892466114,1.024731955.6945482004,1.6735624047.9146994026.648313865.2208399819,1.348974985.3308725343,2.101811165.3308725343,1.2456580343,0,2.3871381435-.4019890353,3.4253013021-1.206569788,1.0264165772-.7954941422,1.7868709754-1.8325958786,2.2805294575-3.1113885827.0104899689-.0271736356.0158619644-.0563805385.0158619644-.0855086335v-6.3465164562c0-.1704044492-.1791585391-.2816374671-.3307199982-.2037477986-.5164290658.2654005111-1.0935990174.5044961138-1.7321751154.7170016965-.7784932227.2596699358-1.5762722763.5127103673-2.3936815504.759035197-.8174092741.2468414145-1.6153605226.5126242699-2.3938537453.797865151-.7783210278.2858435633-1.4789821478.6228290172-2.101811165,1.0119895311-.6226568223.3892466114-1.1227108631.8502124059-1.4984401735,1.3817781168-.3765902849.532168393-.5644549401,1.1871978598-.5644549401,1.9656049851Z"/>
      <path class="cls-1" d="M28.7225581896,31.0605536879c-.9863324884,0-1.8164841864-.0972901285-2.4909716789-.2919564829-.6751762721-.194580257-1.2260278137-.5059947655-1.6542765739-.9341574283-.4280765653-.4280765653-.7395771714-.9858159036-.9341574283-1.6736485022-.194580257-.6872299164-.2918703854-1.5374423223-.2918703854-2.5494318534v-12.0709608249c0-.1263255981-.102407131-.2287327291-.2287327291-.2287327291h-2.7341673406c-.1263255981,0-.2287327291-.102407131-.2287327291-.2287327291v-3.979756497c0-.1263255981.102407131-.2287327291.2287327291-.2287327291h5.3031433171c.1263255981,0,.2287327292-.102407131.2287327292-.2287327291v-.3494073361c0-.1146448046-.0848716057-.211579937-.1985113199-.2267274306l-.3854016459-.0513717322c-.7006611199-.1295766755-1.206569788-.3892466114-1.5180703941-.7784932227-.3113284111-.3892466114-.4669926167-.998644425-.4669926167-1.8293988052v-2.4890308874c0-.0949396704.0586482894-.1800096824.1473801286-.2137765557l4.2115209581-1.602692965c.0259832752-.0098879272.0535514909-.0149561734.0813526005-.0149561734h.1527013516v7.5558551084c0,.1263255981.102407131.2287327291.2287327291.2287327291h6.5486291566c.1263255981,0,.2287327291.102407131.2287327291.2287327291v3.979756497c0,.1263255981-.102407131.2287327291-.2287327291.2287327291h-6.5494246067c-.1260145268,0-.228292346.1019221337-.2287313412.2279358959l-.0381219892,10.9429338754c0,.882498953.1684066295,1.4663258213.5059086681,1.7515667024.3369854539.2858435633.9468998522.4281626628,1.8293988052.4281626628h4.7567481327c.1263255981,0,.2287327291.102407131.2287327291.2287327291v3.9408232261c0,.1263255981-.102407131.2287327291-.2287327291.2287327291h-6.2748185268Z"/>
      <path class="cls-1" d="M60.8096248869,8.8744439119h4.1353173856c.1263255981,0,.2287327291.102407131.2287327291.2287327291v4.4469040891c0,.1263255981.102407131.2287327291.2287327291.2287327291h.3551802366v-.1168342516c0-.7005750225.1616910277-1.3427759679.4864506424-1.9266889337.32424303-.5838268683.7784932228-1.0898216339,1.3624061885-1.5179842966.5837407709-.4281626628,1.2709706872-.7589490996,2.0628951136-.9925315054.7912356467-.2334963083,1.6670189979-.35033056,2.6273500536-.35033056h2.9086854961c.1263255981,0,.2287327291.102407131.2287327291.2287327291v3.9408232261c0,.1263255981-.102407131.2287327291-.2287327291.2287327291h-4.5045879929c-3.6849712379,0-5.527112467,1.9206621116-5.527112467,5.7606087754v11.7984795872c0,.1263255981-.102407131.2287327291-.2287327291.2287327291h-4.1353173856c-.1263255981,0-.2287327291-.102407131-.2287327291-.2287327291V9.103176641c0-.1263255981.102407131-.2287327291.2287327291-.2287327291Z"/>
      <path class="cls-1" d="M4.3831118147,24.0155430217c.1135369356,0,.2068455046.0838178833.2261673477.1956986328.1726040068.999442217.7403436925,1.8099877846,1.7036473342,2.4315653233,1.024731955.6616589711,2.3413342954.9925315054,3.9506679959.9925315054,1.401150045,0,2.5104297046-.2590672536,3.3278389787-.7784932227.8174092741-.5187371894,1.3490909503-1.1733402385,1.3490909503-2.0819267215,0-.648313865-.507673666-1.3132875883-1.2210772098-1.6769632544-.7139201286-.3630729839-1.5815110404-.5743090296-2.6579014707-.8339789654-1.0770792099-.2590672536-2.2381895397-.5315657108-3.4836753792-.8174092741-1.2454858394-.2852408811-2.407112754-.6811169968-3.4836753792-1.1871117623-1.076907015-.5059947655-1.972148392-1.1677398341-2.6855519358-1.9850630108-.7140923235-.8174092741-1.0703636082-1.8877728823-1.0703636082-3.211176922,0-.9596422761.2200651048-1.8488568309.6615728737-2.6661800076.4409911841-.8174092741,1.0509055825-1.530812818,1.8293988052-2.1408133138.7784932227-.6093978136,1.712650651-1.0898216339,2.8024722849-1.4401521938,1.0898216339-.3502444625,2.2963914219-.5254527912,3.619881559-.5254527912,1.34880279,0,2.5817184005.1885534348,3.6977136618.5643688426,1.1153064817.3765041875,2.0823531393.9086725805,2.8997624134,1.5959024969.8172370792.6878325986,1.472266546,1.5179842966,1.9656049851,2.4910577763.458226375.9053976381.7375615337,1.906576615.8368958122,3.0026353286.0120540559.1330049725-.0950455883.2473715473-.2285956649.2473715473h-4.1613847396c-.107235076,0-.1984574249-.0757436739-.2223378375-.1802859497-.5593517117-2.4486972556-2.2367804996-3.6730058203-4.9044067847-3.6730058203-1.2200009916,0-2.1930744713.2918703854-2.9192204391.8756972538-.7268347474.5839129658-1.0898216339,1.303946014-1.0898216339,2.1602713395,0,.7005750225.3562712846,1.2394590173,1.0703636082,1.6152744251.7134035439.3765041875,1.6084727258.7072906243,2.6855519358.9925315054,1.0765626252.2858435633,2.5698717854.5643688426,3.8153576248.8368672998,1.2454858394.2724123597,2.4065961692.655632149,3.4836753792,1.148195711,1.0763904303.4932523416,1.9716318072,1.135453287,2.6855519358,1.9266889337.7134035439.7918383289,1.1605970278,1.8594774508,1.1605970278,3.1828814905,0,.9341574283-.3371609316,1.79320724-.8296383961,2.5971853106-.4933384391.8045807528-1.1678259316,1.4985262709-2.0239790622,2.0823531393-.8563253255.5839129658-1.8750304584,1.0448787604-3.0555988139,1.3817781168-1.1809127453.3368993564-2.7904534749.5059947655-4.1656020873.5059947655-1.4789821478,0-2.8157312936-.181837833-4.009042073-.5449108169-1.1938273641-.3630729839-2.2252749209-.8757833512-3.0943426703-1.5374423223-.8695843342-.6616589711-1.5507874285-1.4596102195-2.0434370879-2.3937676478-.4587320157-.868931978-.7266102029-1.838877926-.803357391-2.9098378441-.0094179471-.1314216733.0971815852-.2428789033.2289402811-.2428789033h4.1522568694Z"/>
      <path class="cls-2" d="M93.0498553781,7.7317682871h-3.6035340235c-.11861559,0-.1780185414.1434112612-.0941447153.2272852112l2.5479930577,2.5479968187c.0519861942.0519862709.0519957829.1362696307.0000214187.1882677289l-1.3328482446,1.33345689c-.0519911727.0520149145-.1363077348.0520245381-.1883107798.0000214931l-2.5486441407-2.5486441407c-.0838739216-.0838739216-.2272852807-.0244709916-.2272852807.0941446458v3.6042282961c0,.0735315422-.0596090926.1331406349-.1331406349.1331406349h-1.8849033018c-.0735315422,0-.1331406349-.0596090927-.1331406349-.1331406349v-3.6049229043c0-.1186156374-.1434113591-.1780185674-.2272852807-.0941446458l-2.5486656338,2.5486656338c-.0519946521.0519946521-.1362946394.0519946521-.1882892916,0l-1.3328050358-1.3328050358c-.0519946997-.0519946997-.0521271096-.1361623208-.0001323404-.1881569511.256257602-.2562569181.9963849681-.996383475,1.7206132711-1.7206220578.8951720481-.8951635773,2.0464003873-.7841363904,2.0464003873-.7841363904v-.1275104608c0-.0790452749-.0640788561-.1431241311-.1431241311-.1431241311h-4.7741592612c-.0735315422,0-.1331406349-.0596090927-.1331406349-.1331406349v-1.8855979099c0-.0735315422.0596090927-.1331406349.1331406349-.1331406349h3.603533688c.1186156374,0,.1780185674-.1434113591.0941446458-.2272852807l-2.5479711566-2.5479711566c-.051994601-.051994601-.0519946597-.1362944872-.000000131-.1882891606l1.333499925-1.3335036364c.0519946852-.0519948299.1362948807-.0519948264.1882895615.0000000079l2.5486653638,2.548672886c.0838738648.0838741123.2272854196.0244712253.2272854196-.0941445069V.1331406349c0-.0735315422.0596090926-.1331406349.1331406349-.1331406349h1.8849033018c.0735315422,0,.1331406349.0596090927.1331406349.1331406349v3.6042276253c0,.1186157322.1434115548.1780186192.2272854196.0941445069l2.5486653638-2.548672886c.0519946809-.0519948343.1362948764-.0519948378.1882895616-.0000000079l1.3328053318,1.3328090429c.0519945192.051994664.05212692.1361620839.0001323411.1881566882-.2562571989.2562573239-.9963849934.9963857727-1.7206137067,1.7206179126-.8951720481.8951635773-2.0464003873.7841448612-2.0464003873.7841448612v.1381800943c0,.0735315422.0596090927.1331406349.1331406349.1331406349h4.7834481492c.0735315422,0,.1331406349.0596090927.1331406349.1331406349v1.8855979099c0,.0735315422-.0596090926.1331406349-.1331406349.1331406349Z"/>
      <g>
        <path class="cls-2" d="M.3349609375,40.9076687402v-6.298828125h4.458984375v.96484375H1.341796875v1.7021484375h3.3291015625v.96484375H1.341796875v1.7021484375h3.4521484375v.96484375H.3349609375Z"/>
        <path class="cls-2" d="M12.728515625,37.7582546777c0,.4794921875-.0703125.9130859375-.2119140625,1.30078125-.142578125.38671875-.34375.716796875-.60546875.9892578125-.26171875.2734375-.578125.484375-.94921875.634765625-.37109375.1494140625-.78515625.224609375-1.2431640625.224609375h-2.0048828125v-6.298828125h2.0048828125c.4580078125,0,.8720703125.0732421875,1.2431640625.220703125s.6875.3583984375.94921875.6337890625.462890625.607421875.60546875.994140625c.1416015625.3876953125.2119140625.8212890625.2119140625,1.30078125ZM11.681640625,37.7504421777c0-.708984375-.1796875-1.2490234375-.5400390625-1.6201171875-.359375-.37109375-.8857421875-.556640625-1.578125-.556640625h-.8427734375v4.369140625h.8427734375c.697265625,0,1.2255859375-.1875,1.5830078125-.560546875.3564453125-.3740234375.53515625-.91796875.53515625-1.6318359375Z"/>
        <path class="cls-2" d="M20.7783203125,38.2162624902c0,.4365234375-.0615234375.828125-.1845703125,1.173828125-.1220703125.3466796875-.296875.640625-.5234375.8837890625-.2265625.2421875-.49609375.4296875-.8095703125.560546875s-.6611328125.1962890625-1.04296875.1962890625c-.392578125,0-.7470703125-.0673828125-1.0634765625-.201171875-.31640625-.1328125-.5869140625-.322265625-.810546875-.568359375-.2236328125-.2451171875-.39453125-.541015625-.5146484375-.8876953125-.1201171875-.345703125-.1806640625-.7314453125-.1806640625-1.1572265625v-3.607421875h1.0068359375v3.5908203125c0,.578125.134765625,1.02734375.404296875,1.345703125.2705078125.3193359375.6533203125.478515625,1.1494140625.478515625s.880859375-.1591796875,1.154296875-.478515625c.2724609375-.318359375.408203125-.767578125.408203125-1.345703125v-3.5908203125h1.0068359375v3.607421875Z"/>
        <path class="cls-2" d="M29.6455078125,38.5678249902c-.04296875.365234375-.1455078125.69921875-.306640625,1.001953125s-.3681640625.5634765625-.62109375.78125c-.25390625.21875-.546875.38671875-.8798828125.50390625s-.6923828125.17578125-1.080078125.17578125c-.44140625,0-.8466796875-.0810546875-1.21484375-.2412109375-.3681640625-.1611328125-.6845703125-.3857421875-.9482421875-.67578125-.2646484375-.2880859375-.4716796875-.6337890625-.6220703125-1.0341796875-.150390625-.4013671875-.224609375-.841796875-.224609375-1.3212890625s.07421875-.919921875.224609375-1.3212890625c.150390625-.400390625.357421875-.74609375.6220703125-1.03515625.263671875-.2890625.580078125-.513671875.9482421875-.6748046875.3681640625-.16015625.7734375-.2412109375,1.21484375-.2412109375.3876953125,0,.74609375.05859375,1.076171875.17578125s.6220703125.2841796875.875.4990234375c.25390625.2158203125.4609375.4736328125.6220703125.7734375.16015625.2998046875.2626953125.6328125.306640625.998046875h-1.0556640625c-.02734375-.212890625-.0927734375-.408203125-.1962890625-.5849609375s-.234375-.328125-.392578125-.4541015625c-.158203125-.125-.3408203125-.2236328125-.5478515625-.294921875-.20703125-.0703125-.4306640625-.10546875-.6708984375-.10546875-.2890625,0-.5546875.0537109375-.7978515625.1630859375-.2421875.109375-.451171875.26171875-.625.4580078125-.1748046875.1962890625-.3115234375.43359375-.4091796875.7119140625-.0986328125.2783203125-.1474609375.5888671875-.1474609375.9326171875s.0458984375.654296875.138671875.9326171875.2255859375.5166015625.3974609375.7158203125.3798828125.3515625.625.4580078125c.24609375.1064453125.5185546875.1591796875.818359375.1591796875.234375,0,.455078125-.03515625.6630859375-.1064453125.20703125-.0703125.3896484375-.171875.5478515625-.302734375s.2890625-.2841796875.392578125-.4619140625c.103515625-.1767578125.171875-.3720703125.2041015625-.5849609375h1.0634765625Z"/>
        <path class="cls-2" d="M37.8916015625,40.9076687402h-1.0712890625l-.548828125-1.5458984375h-2.6259765625l-.5556640625,1.5458984375h-1.0634765625l2.216796875-6.298828125h1.439453125l2.208984375,6.298828125ZM35.4208984375,36.8832546777c-.08203125-.240234375-.1484375-.439453125-.2001953125-.59765625s-.0927734375-.2919921875-.123046875-.400390625c-.0302734375-.109375-.048828125-.1982421875-.056640625-.2666015625-.0087890625-.0673828125-.0126953125-.12890625-.0126953125-.18359375v-.08984375h-.130859375v.08984375c0,.0595703125-.00390625.123046875-.0126953125.1884765625-.0078125.0654296875-.025390625.1494140625-.052734375.2529296875s-.06640625.236328125-.1181640625.3974609375c-.052734375.16015625-.1220703125.3662109375-.208984375.6171875l-.5322265625,1.5048828125h1.98828125l-.5400390625-1.5126953125Z"/>
        <path class="cls-2" d="M41.5322265625,35.5736843652h-2.1513671875v-.96484375h5.3173828125v.96484375h-2.1513671875v5.333984375h-1.0146484375v-5.333984375Z"/>
        <path class="cls-2" d="M47.5771484375,40.9076687402v-6.298828125h1.0068359375v6.298828125h-1.0068359375Z"/>
        <path class="cls-2" d="M51.5126953125,37.7582546777c0-.46875.0771484375-.90234375.232421875-1.30078125.15625-.3984375.3701171875-.7431640625.642578125-1.03515625.2724609375-.291015625.595703125-.5205078125.9697265625-.6865234375.373046875-.1669921875.7783203125-.25,1.21484375-.25.44140625,0,.8505859375.08203125,1.2265625.24609375.3759765625.1630859375.69921875.3896484375.9697265625.6787109375.26953125.2890625.4814453125.6337890625.6337890625,1.0341796875.15234375.4013671875.2294921875.8388671875.2294921875,1.3134765625s-.0771484375.912109375-.2294921875,1.3125c-.15234375.4013671875-.3642578125.74609375-.6337890625,1.03515625-.2705078125.2890625-.59375.515625-.9697265625.6787109375-.3759765625.1640625-.78515625.24609375-1.2265625.24609375-.4365234375,0-.841796875-.083984375-1.21484375-.25-.3740234375-.166015625-.697265625-.3955078125-.9697265625-.6865234375-.2724609375-.2919921875-.486328125-.63671875-.642578125-1.03515625-.1552734375-.3984375-.232421875-.83203125-.232421875-1.30078125ZM52.5595703125,37.7582546777c0,.3271484375.0498046875.6298828125.1513671875.908203125.1005859375.2783203125.2412109375.5166015625.4208984375.7158203125.1806640625.19921875.392578125.35546875.638671875.4697265625.2451171875.115234375.5146484375.171875.8095703125.171875.2998046875,0,.572265625-.0537109375.818359375-.1630859375.2451171875-.109375.4560546875-.263671875.6337890625-.462890625.1767578125-.1982421875.3134765625-.4384765625.4091796875-.7197265625.0947265625-.2802734375.142578125-.58984375.142578125-.927734375,0-.3388671875-.0478515625-.646484375-.142578125-.9248046875-.095703125-.2783203125-.232421875-.515625-.4091796875-.7119140625-.177734375-.1962890625-.388671875-.3486328125-.6337890625-.4580078125-.24609375-.109375-.5185546875-.1630859375-.818359375-.1630859375-.2890625,0-.5576171875.056640625-.8056640625.1708984375-.248046875.115234375-.4619140625.271484375-.642578125.470703125-.1796875.19921875-.3203125.4375-.4208984375.7158203125-.1015625.2783203125-.1513671875.5810546875-.1513671875.908203125Z"/>
        <path class="cls-2" d="M64.33203125,40.9076687402l-1.9716796875-3.20703125c-.115234375-.201171875-.2119140625-.3828125-.291015625-.5439453125-.0791015625-.16015625-.142578125-.310546875-.1923828125-.44921875-.048828125-.1396484375-.083984375-.271484375-.10546875-.3974609375-.0224609375-.125-.033203125-.2509765625-.033203125-.3759765625v-.2294921875h-.1796875v5.203125h-1.0068359375v-6.298828125h1.1943359375l1.81640625,2.904296875c.1748046875.283203125.3154296875.521484375.421875.7158203125.10546875.193359375.1875.36328125.2451171875.5107421875.056640625.1474609375.0947265625.2841796875.1142578125.4091796875.01953125.1259765625.0283203125.2646484375.0283203125.4169921875v.2373046875h.1806640625v-5.1943359375h1.005859375v6.298828125h-1.2265625Z"/>
      </g>
    </g>
  </g>
</svg>