<?xml version="1.0" encoding="UTF-8"?>
<svg id="Layer_2" data-name="Layer 2" xmlns="http://www.w3.org/2000/svg" viewBox="0 0 93.1810813488 43.3371080226">
  <defs>
    <style>
      .cls-1 {
        fill: #733ecd;
      }

      .cls-2 {
        fill: #733ecd;
      }
    </style>
  </defs>
  <g id="Layer_1-2" data-name="Layer 1">
    <g>
      <path class="cls-1" d="M36.9725317981,24.443467541c0-1.582375353.3436989177-2.886313256,1.0314411409-3.9117276123.6872256416-1.0247255809,1.5569767606-1.8615876752,2.6078758061-2.5105001859,1.0508990456-.6483098323,2.1990876144-1.1609309135,3.4447379005-1.537432759,1.2454780921-.3758130701,2.4325824704-.7200285694,3.5613131345-1.0314411409s2.1079970696-.6288519276,2.9386601854-.9536095223c.6274132169-.244991782,1.0769928168-.4715805386,1.3489618154-.8141853147.1194746139-.1505045558.0128885144-.372987941-.1792723679-.372987941h-13.2824023549c-.1263248123,0-.2287313064-.102406494-.2287313064-.2287313063v-3.9797317418c0-.1263248123.102406494-.2287313063.2287313064-.2287313063h18.5787061615c.1263248123,0,.2287313064.102406494.2287313064.2287313063v21.7285091597c0,.1263248123-.102406494.2287313063-.2287313064.2287313063h-4.1354638566c-.1263248123,0-.2287313064-.102406494-.2287313064-.2287313063v-3.5747138502c0-.1323128528-.1119264858-.2370260227-.2439462865-.2282247026l-.2033201225.0135546748c-.0840409928.0056027328-.1574292235.0580166158-.1920874656.1347830495-.6742817819,1.4935035509-1.6610287105,2.6064967861-2.9608750692,3.3384247074-1.3367408309.7523149156-2.8608285667,1.1287306642-4.5734685646,1.1287306642-1.0381567009,0-2.0179396878-.2012946066-2.9386601854-.6032811414-.9214092729-.4019865348-1.7193555579-.9341516176-2.3938388549-1.595806473-.6749998785-.6617409523-1.2065622829-1.4267982126-1.5957203761-2.2964632347-.3893302871-.8690623436-.5839093337-1.7710137119-.5839093337-2.7051653295ZM41.6432898861,23.3536526862c0,.6227390461.1362053326,1.1938199382.4086159979,1.7126399979.2725828591.5193366412.6422830477.9730674269,1.1094449534,1.3622255201.4669897119.3892441901,1.0247255809.6945438801,1.6735519947.9146937129.6483098323.2208386082,1.348966594.3308704762,2.1017980911.3308704762,1.245650286,0,2.3871232949-.4019865348,3.4252799958-1.2065622828,1.0264101925-.7954891941,1.7868598605-1.8325844793,2.280515272-3.111369229.0104899036-.0271734665.0158618657-.0563801878.0158618657-.0855081016v-6.3464769791c0-.1704033893-.1791574246-.2816357152-.330717941-.2037465313-.5164258535.2653988602-1.0935922149.5044929757-1.7321643408.7169972366-.7784883803.2596683206-1.5762624714.5127071781-2.393666661.7590304756-.8174041896.246839879-1.6153504746.5126210812-2.3938388549.797860188-.7783161864.2858417853-1.4789729481.622825143-2.1017980911,1.0119832362-.6226529492.3892441901-1.1227038796.8502071174-1.4984308528,1.3817695217-.3765879424.5321650828-.564451429,1.1871904751-.564451429,1.9655927585Z"/>
      <path class="cls-1" d="M28.7210444869,31.0603604828c-.9863263531,0-1.8164728874-.0972895233-2.4909561843-.2919546668-.6751720724-.1945790466-1.2260201875-.5059916181-1.6542662839-.9341516176-.4280739025-.4280739026-.739572571-.9858097716-.9341516176-1.6736380916-.1945790466-.6872256416-.2918685699-1.537432759-.2918685699-2.5494159953v-12.0708857402c0-.1263248123-.102406494-.2287313063-.2287313063-.2287313063h-2.7341503333c-.1263248123,0-.2287313064-.102406494-.2287313064-.2287313063v-3.9797317418c0-.1263248123.1024064941-.2287313063.2287313064-.2287313063h5.3031103301c.1263248123,0,.2287313064-.102406494.2287313064-.2287313063v-.3494051627c0-.1146440915-.0848710777-.2115786209-.1985100851-.2267260203l-.3853992485-.0513714127c-.7006567616-.1295758695-1.2065622829-.3892441901-1.5180609513-.7784883803-.3113264746-.3892441901-.4669897119-.9986382131-.4669897119-1.8293874258v-2.489015405c0-.0949390799.0586479246-.1800085627.1473792119-.213775226l4.2114947613-1.6026829958c.0259831136-.0098878656.0535511578-.0149560804.0813520944-.0149560804h.1527004017v7.5558081089c0,.1263248123.102406494.2287313063.2287313064.2287313063h6.5485884223c.1263248123,0,.2287313064.102406494.2287313064.2287313063v3.9797317418c0,.1263248123-.1024064941.2287313063-.2287313064.2287313063h-6.5493838675c-.126013743,0-.2282909259.1019214997-.2287299184.227934478l-.0381217521,10.9428658074c0,.8824934636.1684055819,1.4663167004.5059055212,1.7515558072.3369833577.2858417853.9468939622.4281599995,1.8293874259.4281599995h4.7567185444c.1263248123,0,.2287313063.102406494.2287313063.2287313063v3.9407987131c0,.1263248123-.102406494.2287313063-.2287313063.2287313063h-6.2747794957Z"/>
      <path class="cls-1" d="M60.8079115939,8.8743887104h4.1352916628c.1263248123,0,.2287313064.102406494.2287313064.2287313063v4.4468764281c0,.1263248123.102406494.2287313063.2287313063.2287313063h.3551780274v-.1168335249c0-.7005706647.1616900219-1.3427676155.4864476165-1.9266769492.3242410131-.5838232368.7784883803-1.0898148549,1.362397714-1.5179748544.5837371398-.4281599995,1.2709627815-.7589443787,2.0628822818-.9925253316.791230725-.2334948559,1.6670086286-.3503283808,2.6273337108-.3503283808h2.9086674033c.1263248123,0,.2287313063.102406494.2287313063.2287313063v3.9407987131c0,.1263248123-.102406494.2287313063-.2287313063.2287313063h-4.5045599732c-3.6849483164,0-5.5270780869,1.9206501645-5.5270780869,5.7605729428v11.7984061974c0,.1263248123-.1024064941.2287313063-.2287313064.2287313063h-4.1352916628c-.1263248123,0-.2287313064-.102406494-.2287313064-.2287313063V9.1031200168c0-.1263248123.102406494-.2287313063.2287313064-.2287313063Z"/>
      <path class="cls-1" d="M4.38174951,24.0153936385c.1135362293,0,.206844218.0838173619.2261659408.1956974155.1726029332.9994360002.7403390874,1.809976526,1.703636737,2.4315501983,1.0247255809.6616548554,2.3413197317.9925253316,3.9506434216.9925253316,1.4011413295,0,2.510414089-.2590656421,3.3278182786-.7784883803.8174041896-.5187339628,1.3490825586-1.17333294,1.3490825586-2.0819137713,0-.6483098323-.5076705081-1.3132794193-1.2210696144-1.6769528232-.7139156878-.3630707255-1.581501203-.5743054572-2.6578849378-.8339737778-1.0770725102-.2590656422-2.2381756176-.5315624043-3.4836537098-.8174041896-1.2454780922-.2852391068-2.4070977811-.6811127601-3.4836537098-1.1871043782-1.0769003164-.5059916181-1.9721361247-1.1677325704-2.6855352309-1.9850506631-.7140878817-.8174041896-1.0703569502-1.8877611398-1.0703569502-3.2111569476,0-.9596363069.2200637359-1.8488453305.6615687585-2.6661634232.440988441-.8174041896,1.0508990455-1.5308032959,1.8293874258-2.1407999974.7784883803-.609394023,1.7126399979-1.0898148549,2.8024548528-1.4401432357,1.0898148549-.3502422839,2.2963771377-.5254495228,3.6198590424-.5254495228,1.3487944001,0,2.5817023415.188552262,3.697690661.5643653321,1.1152995442.3765018455,2.0823401865.9086669283,2.8997443761,1.5958925699.8172319958.6878283201,1.4722573881,1.5179748543,1.9655927585,2.4910422813.4582235247.9053920063.7375569459,1.9065647555.8368906064,3.0026166513.0120539809.1330041451-.0950449971.2473700086-.228594243.2473700086h-4.1613588546c-.107234409,0-.1984561904-.0757432027-.2223364545-.1802848282-.5593482324-2.4486820241-2.2367665862-3.6729829732-4.9043762779-3.6729829732-1.2199934029,0-2.1930608298.2918685699-2.9192022808.8756918067-.7268302263.5839093337-1.0898148549,1.3039379031-1.0898148549,2.160257902,0,.7005706647.3562690685,1.2394513075,1.0703569502,1.6152643777.7133991063.3765018455,1.6084627207.7072862247,2.685535231.9925253316,1.0765559287.2858417853,2.5698558001.5643653321,3.8153338923.8368620943,1.2454780922.2724106653,2.4065811995.6556280708,3.4836537098,1.1481885689,1.0763837349.4932492735,1.9716195431,1.1354462242,2.685535231,1.9266769492.7133991063.7918334034,1.1605898086,1.8594658844,1.1605898086,3.1828616921,0,.9341516176-.3371588343,1.7931960858-.8296332355,2.5971691554-.4933353704.8045757481-1.1678186674,1.4985169497-2.0239664725,2.0823401865-.856319999.5839093337-1.8750187952,1.0448722609-3.0555798072,1.3817695217-1.1809053997.3368972608-2.7904361175.5059916181-4.1655761762.5059916181-1.4789729481,0-2.8157137789-.181836702-4.0090171356-.5449074274-1.1938199382-.3630707255-2.2252610791-.8757779036-3.0943234227-1.537432759-.8695789251-.6616548554-1.5507777821-1.4596011404-2.0434243771-2.393752758C.3452028434,26.2991642022.0773263224,25.3292242875.0005796117,24.258271031c-.0094178885-.1314208559.0971809807-.2428773925.228938857-.2428773925h4.1522310413Z"/>
      <path class="cls-2" d="M93.0479415421,7.7317201934h-3.6035116085c-.1186148522,0-.1780174341.1434103691-.0941441297.2272837974l2.5479772085,2.5479809695c.0519858708.0519859476.0519954595.136268783.0000214186.1882665579l-1.3328399539,1.3334485956c-.0519908493.052014591-.1363068869.0520242145-.1883096084.000021493l-2.5486282874-2.5486282874c-.0838733998-.0838733999-.2272838669-.0244708394-.2272838669.0941440602v3.6042058769c0,.0735310848-.0596087219.1331398067-.1331398067.1331398067h-1.8848915772c-.0735310848,0-.1331398067-.0596087219-.1331398067-.1331398067v-3.6049004807c0-.1186148996-.143410467-.17801746-.2272838669-.0941440602l-2.5486497804,2.5486497804c-.0519943287.0519943287-.1362937916.0519943287-.1882881204,0l-1.3327967454-1.3327967454c-.0519943763-.0519943763-.0521267853-.1361614738-.0001323396-.1881557808.256256008-.2562553241.9963787704-.9963772772,1.7206025684-1.7206113551.8951664799-.8951580091,2.0463876582-.7841315128,2.0463876582-.7841315128v-.1275096677c0-.0790447832-.0640784575-.1431232408-.1431232408-.1431232408h-4.7741295646c-.0735310849,0-.1331398067-.0596087219-.1331398067-.1331398067v-1.885586181c0-.0735310848.0596087219-.1331398067.1331398067-.1331398067h3.603511273c.1186148996,0,.17801746-.143410467.0941440602-.2272838669l-2.5479553076-2.5479553076c-.0519942776-.0519942776-.0519943362-.1362936394-.000000131-.1882879893l1.3334916303-1.3334953416c.0519943618-.0519945065.1362940329-.0519945029.1882883903.0000000079l2.5486495105,2.5486570326c.0838733431.0838735906.2272840058.0244710731.2272840058-.0941439212V.1331398067c0-.0735310848.0596087219-.1331398067.1331398067-.1331398067h1.8848915772c.0735310849,0,.1331398067.0596087219.1331398067.1331398067v3.6042052061c0,.1186149943.1434106628.1780175119.2272840058.0941439212l2.5486495104-2.5486570325c.0519943574-.0519945109.1362940286-.0519945144.1882883904-.0000000079l1.3327970414,1.3328007525c.0519941958.0519943406.0521265958.1361612369.0001323403.1881555178-.2562556049.2562557299-.9963787956.9963795749-1.720603004,1.7206072099-.8951664799.8951580091-2.0463876581.7841399836-2.0463876581.7841399836v.1381792348c0,.0735310848.0596087219.1331398067.1331398067.1331398067h4.7834183949c.0735310848,0,.1331398067.0596087219.1331398067.1331398067v1.885586181c0,.0735310848-.0596087219.1331398067-.1331398067.1331398067Z"/>
      <g>
        <path class="cls-2" d="M.3619193654,40.8244127101v-6.7880859375h4.8041992188v1.041015625H1.4463920216v1.8330078125h3.587890625v1.0400390625H1.4463920216v1.833984375h3.7197265625v1.0400390625H.3619193654Z"/>
        <path class="cls-2" d="M11.5835990529,34.0363267726h1.1284179688l1.4282226562,3.7998046875c.12890625.3759765625.23046875.6787109375.3037109375.908203125.0737304688.228515625.1279296875.4140625.1630859375.5546875.0356445312.1416015625.0561523438.255859375.0620117188.34375.005859375.0888671875.0087890625.1796875.0087890625.2734375v.115234375h.1411132812v-.115234375c0-.08203125.0043945312-.1669921875.0131835938-.255859375.0087890625-.087890625.0307617188-.2041015625.0659179688-.34765625s.0883789062-.333984375.1586914062-.568359375c.0708007812-.2353515625.1704101562-.5380859375.2998046875-.908203125l1.4106445312-3.7998046875h1.13671875l-2.3798828125,6.7880859375h-1.5512695312l-2.3891601562-6.7880859375Z"/>
        <path class="cls-2" d="M24.4361381154,40.8244127101v-6.7880859375h4.8041992188v1.041015625h-3.7197265625v1.8330078125h3.587890625v1.0400390625h-3.587890625v1.833984375h3.7197265625v1.0400390625h-4.8041992188Z"/>
        <path class="cls-2" d="M39.9864310841,40.8244127101l-2.1245117188-3.455078125c-.1235351562-.2177734375-.2280273438-.4130859375-.3129882812-.5869140625-.0854492188-.1728515625-.154296875-.3349609375-.20703125-.484375-.052734375-.150390625-.0913085938-.29296875-.1147460938-.427734375s-.03515625-.2705078125-.03515625-.4052734375v-.2470703125h-.1938476562v5.6064453125h-1.0844726562v-6.7880859375h1.287109375l1.95703125,3.1298828125c.1879882812.3056640625.3393554688.5625.4541015625.771484375.1142578125.2080078125.2026367188.3916015625.2641601562.55078125.0620117188.158203125.1030273438.3056640625.1235351562.4404296875.0205078125.1357421875.0307617188.28515625.0307617188.4501953125v.2548828125h.1938476562v-5.59765625h1.0844726562v6.7880859375h-1.322265625Z"/>
        <path class="cls-2" d="M50.2027396779,35.0773423976h-2.318359375v-1.041015625h5.7299804688v1.041015625h-2.318359375v5.7470703125h-1.0932617188v-5.7470703125Z"/>
        <path class="cls-2" d="M61.1602592091,38.7970689601c.01171875.158203125.0620117188.3037109375.1499023438.4365234375.0883789062.1318359375.20703125.248046875.3569335938.34765625.1499023438.1005859375.3276367188.177734375.5336914062.2333984375.2055664062.056640625.4287109375.083984375.669921875.083984375.4755859375,0,.859375-.087890625,1.150390625-.2646484375.2905273438-.17578125.4360351562-.4169921875.4360351562-.72265625,0-.158203125-.0615234375-.2890625-.1850585938-.3916015625-.1235351562-.103515625-.28515625-.19140625-.4848632812-.2646484375s-.4291992188-.138671875-.6875-.1943359375c-.2587890625-.0556640625-.521484375-.119140625-.7890625-.189453125s-.5302734375-.1513671875-.7890625-.2421875c-.2583007812-.0908203125-.4877929688-.20703125-.6875-.3486328125-.1997070312-.140625-.361328125-.314453125-.4848632812-.51953125-.123046875-.2060546875-.1850585938-.4560546875-.1850585938-.75,0-.2998046875.0620117188-.5771484375.1850585938-.8330078125.1235351562-.2548828125.296875-.4765625.5200195312-.6650390625.2236328125-.1884765625.4921875-.3369140625.806640625-.4453125s.6596679688-.1630859375,1.0361328125-.1630859375c.3818359375,0,.7314453125.0576171875,1.048828125.171875s.5908203125.2744140625.8198242188.48046875.408203125.4521484375.5375976562.740234375.1967773438.60546875.2026367188.9521484375h-1.0927734375c-.03515625-.3876953125-.18359375-.69921875-.4453125-.9345703125-.26171875-.234375-.6274414062-.3525390625-1.09765625-.3525390625-.4404296875,0-.7827148438.1015625-1.0268554688.3046875-.2436523438.2021484375-.3657226562.4541015625-.3657226562.7529296875,0,.1533203125.0615234375.28125.1850585938.3837890625s.28515625.19140625.4848632812.2646484375.4291992188.1396484375.6875.1982421875c.2587890625.05859375.521484375.123046875.7890625.1943359375.267578125.0703125.5302734375.15234375.7890625.24609375.2583007812.0947265625.4877929688.21484375.6875.361328125.1997070312.1474609375.361328125.326171875.4848632812.5380859375s.1850585938.466796875.1850585938.7666015625c0,.2880859375-.0673828125.5546875-.2026367188.7978515625-.1352539062.244140625-.3247070312.4541015625-.5688476562.630859375-.2436523438.17578125-.5317382812.3125-.8637695312.4091796875-.33203125.09765625-.6948242188.1455078125-1.0883789062.1455078125-.3999023438,0-.7685546875-.052734375-1.1064453125-.158203125s-.6303710938-.2529296875-.876953125-.4404296875c-.2470703125-.1884765625-.439453125-.4150390625-.5776367188-.6787109375-.1381835938-.2646484375-.212890625-.55859375-.224609375-.8818359375h1.083984375Z"/>
      </g>
    </g>
  </g>
</svg>