<?xml version="1.0" encoding="UTF-8"?>
<svg id="Layer_2" data-name="Layer 2" xmlns="http://www.w3.org/2000/svg" viewBox="0 0 93.1810910507 43.4077414617">
  <defs>
    <style>
      .cls-1 {
        fill: #c32c00;
      }

      .cls-2 {
        fill: #00003f;
      }
    </style>
  </defs>
  <g id="Layer_1-2" data-name="Layer 1">
    <g>
      <path class="cls-2" d="M36.9725415,24.443467541c0-1.582375353.3436989177-2.886313256,1.0314411409-3.9117276123.6872256416-1.0247255809,1.5569767606-1.8615876752,2.6078758061-2.5105001859,1.0508990456-.6483098323,2.1990876144-1.1609309135,3.4447379004-1.537432759,1.2454780922-.3758130701,2.4325824704-.7200285694,3.5613131346-1.0314411409,1.1287306642-.3114125715,2.1079970696-.6288519276,2.9386601854-.9536095223.6274132169-.244991782,1.0769928168-.4715805386,1.3489618154-.8141853147.1194746139-.1505045559.0128885144-.372987941-.1792723679-.372987941h-13.2824023549c-.1263248123,0-.2287313064-.102406494-.2287313064-.2287313063v-3.9797317418c0-.1263248123.102406494-.2287313064.2287313064-.2287313064h18.5787061615c.1263248123,0,.2287313064.1024064941.2287313064.2287313064v21.7285091597c0,.1263248123-.102406494.2287313063-.2287313064.2287313063h-4.1354638566c-.1263248123,0-.2287313063-.102406494-.2287313063-.2287313063v-3.5747138502c0-.1323128528-.1119264858-.2370260227-.2439462865-.2282247026l-.2033201225.0135546748c-.0840409928.0056027328-.1574292235.0580166158-.1920874656.1347830495-.6742817819,1.4935035509-1.6610287104,2.6064967861-2.9608750692,3.3384247074-1.3367408308.7523149156-2.8608285668,1.1287306642-4.5734685646,1.1287306642-1.0381567009,0-2.0179396878-.2012946066-2.9386601854-.6032811414-.9214092729-.4019865348-1.7193555579-.9341516176-2.3938388549-1.595806473-.6749998785-.6617409523-1.2065622829-1.4267982126-1.5957203761-2.2964632346-.3893302871-.8690623436-.5839093337-1.7710137119-.5839093337-2.7051653295ZM41.643299588,23.3536526862c0,.6227390461.1362053326,1.1938199382.4086159979,1.7126399979.2725828591.5193366412.6422830477.9730674269,1.1094449534,1.3622255201.4669897119.3892441901,1.0247255809.6945438801,1.6735519947.9146937129.6483098323.2208386082,1.348966594.3308704762,2.1017980911.3308704762,1.245650286,0,2.3871232948-.4019865348,3.4252799958-1.2065622828,1.0264101925-.795489194,1.7868598605-1.8325844793,2.280515272-3.111369229.0104899036-.0271734665.0158618657-.0563801878.0158618657-.0855081016v-6.3464769791c0-.1704033893-.1791574246-.2816357152-.330717941-.2037465313-.5164258535.2653988602-1.0935922149.5044929757-1.7321643408.7169972366-.7784883803.2596683206-1.5762624714.5127071781-2.393666661.7590304756-.8174041896.246839879-1.6153504746.5126210812-2.3938388549.797860188-.7783161864.2858417853-1.4789729481.622825143-2.1017980911,1.0119832362-.6226529492.3892441901-1.1227038796.8502071174-1.4984308528,1.3817695217-.3765879424.5321650828-.564451429,1.1871904751-.564451429,1.9655927585Z"/>
      <path class="cls-2" d="M28.7210541888,31.0603604828c-.9863263531,0-1.8164728873-.0972895233-2.4909561843-.2919546668-.6751720723-.1945790466-1.2260201875-.5059916181-1.6542662839-.9341516176-.4280739025-.4280739026-.739572571-.9858097716-.9341516176-1.6736380916-.1945790466-.6872256416-.2918685699-1.537432759-.2918685699-2.5494159952v-12.0708857402c0-.1263248123-.102406494-.2287313063-.2287313063-.2287313063h-2.7341503333c-.1263248123,0-.2287313064-.102406494-.2287313064-.2287313063v-3.9797317418c0-.1263248123.102406494-.2287313064.2287313064-.2287313064h5.3031103301c.1263248123,0,.2287313064-.102406494.2287313064-.2287313063v-.3494051627c0-.1146440915-.0848710777-.2115786209-.1985100851-.2267260203l-.3853992486-.0513714127c-.7006567617-.1295758695-1.2065622829-.3892441901-1.5180609513-.7784883803-.3113264746-.3892441901-.4669897119-.9986382131-.4669897119-1.8293874258v-2.489015405c0-.0949390799.0586479246-.1800085627.1473792119-.213775226l4.2114947612-1.6026829958c.0259831136-.0098878656.0535511577-.0149560804.0813520944-.0149560804h.1527004017v7.555808109c0,.1263248123.102406494.2287313063.2287313064.2287313063h6.5485884223c.1263248123,0,.2287313063.1024064941.2287313063.2287313064v3.9797317418c0,.1263248123-.102406494.2287313063-.2287313063.2287313063h-6.5493838675c-.126013743,0-.2282909259.1019214997-.2287299184.227934478l-.0381217521,10.9428658074c0,.8824934636.1684055819,1.4663167004.5059055212,1.7515558072.3369833577.2858417853.9468939622.4281599995,1.8293874258.4281599995h4.7567185445c.1263248123,0,.2287313063.102406494.2287313063.2287313063v3.9407987131c0,.1263248123-.102406494.2287313063-.2287313063.2287313063h-6.2747794957Z"/>
      <path class="cls-2" d="M60.8079212958,8.8743887104h4.1352916627c.1263248123,0,.2287313064.1024064941.2287313064.2287313064v4.4468764281c0,.1263248123.102406494.2287313063.2287313063.2287313063h.3551780274v-.1168335249c0-.7005706647.1616900219-1.3427676155.4864476165-1.9266769492.3242410131-.5838232368.7784883803-1.0898148549,1.362397714-1.5179748544.5837371398-.4281599995,1.2709627815-.7589443787,2.0628822818-.9925253316.791230725-.2334948559,1.6670086286-.3503283808,2.6273337108-.3503283808h2.9086674033c.1263248123,0,.2287313063.1024064941.2287313063.2287313064v3.9407987131c0,.1263248123-.102406494.2287313063-.2287313063.2287313063h-4.5045599732c-3.6849483164,0-5.5270780869,1.9206501645-5.5270780869,5.7605729428v11.7984061974c0,.1263248123-.1024064941.2287313063-.2287313064.2287313063h-4.1352916627c-.1263248123,0-.2287313064-.102406494-.2287313064-.2287313063V9.1031200168c0-.1263248123.102406494-.2287313064.2287313064-.2287313064Z"/>
      <path class="cls-2" d="M4.3817592119,24.0153936385c.1135362293,0,.2068442179.0838173619.2261659408.1956974155.1726029332.9994360002.7403390874,1.809976526,1.703636737,2.4315501984,1.0247255809.6616548554,2.3413197317.9925253316,3.9506434216.9925253316,1.4011413295,0,2.510414089-.2590656421,3.3278182786-.7784883803.8174041896-.5187339628,1.3490825586-1.17333294,1.3490825586-2.0819137713,0-.6483098323-.5076705081-1.3132794193-1.2210696144-1.6769528232-.7139156878-.3630707255-1.581501203-.5743054572-2.6578849378-.8339737778-1.0770725103-.2590656422-2.2381756176-.5315624043-3.4836537098-.8174041896-1.2454780921-.2852391068-2.4070977811-.6811127601-3.4836537098-1.1871043782-1.0769003164-.5059916181-1.9721361247-1.1677325704-2.685535231-1.9850506632-.7140878817-.8174041896-1.0703569502-1.8877611398-1.0703569502-3.2111569476,0-.9596363069.2200637359-1.8488453305.6615687585-2.6661634232.440988441-.8174041896,1.0508990456-1.5308032959,1.8293874259-2.1407999974.7784883803-.609394023,1.7126399979-1.0898148549,2.8024548528-1.4401432357,1.0898148549-.3502422839,2.2963771377-.5254495228,3.6198590424-.5254495228,1.3487944001,0,2.5817023415.188552262,3.697690661.5643653321,1.1152995442.3765018455,2.0823401864.9086669283,2.8997443761,1.5958925699.8172319958.6878283201,1.4722573881,1.5179748543,1.9655927585,2.4910422813.4582235247.9053920063.7375569459,1.9065647555.8368906065,3.0026166513.0120539809.1330041451-.0950449971.2473700086-.228594243.2473700086h-4.1613588546c-.107234409,0-.1984561904-.0757432027-.2223364545-.1802848282-.5593482324-2.4486820241-2.2367665862-3.6729829732-4.9043762779-3.6729829732-1.2199934029,0-2.1930608298.2918685699-2.9192022808.8756918067-.7268302263.5839093337-1.0898148549,1.3039379031-1.0898148549,2.160257902,0,.7005706647.3562690685,1.2394513075,1.0703569502,1.6152643777.7133991063.3765018455,1.6084627207.7072862247,2.685535231.9925253316,1.0765559287.2858417853,2.5698558001.5643653321,3.8153338923.8368620943,1.2454780922.2724106653,2.4065811995.6556280708,3.4836537098,1.1481885689,1.0763837349.4932492735,1.9716195431,1.1354462242,2.6855352309,1.9266769492.7133991063.7918334034,1.1605898086,1.8594658844,1.1605898086,3.1828616921,0,.9341516176-.3371588343,1.7931960858-.8296332355,2.5971691554-.4933353704.8045757481-1.1678186673,1.4985169497-2.0239664725,2.0823401865-.856319999.5839093337-1.8750187952,1.0448722609-3.0555798072,1.3817695217-1.1809053997.3368972608-2.7904361175.5059916181-4.1655761762.5059916181-1.4789729481,0-2.815713779-.181836702-4.0090171356-.5449074274-1.1938199382-.3630707255-2.2252610791-.8757779036-3.0943234227-1.537432759-.8695789251-.6616548554-1.5507777821-1.4596011404-2.0434243771-2.393752758C.3452125453,26.2991642022.0773360243,25.3292242875.0005893136,24.258271031c-.0094178885-.1314208559.0971809807-.2428773926.228938857-.2428773926h4.1522310413Z"/>
      <path class="cls-1" d="M93.047951244,7.7317201934h-3.6035116085c-.1186148522,0-.1780174341.1434103691-.0941441297.2272837974l2.5479772086,2.5479809695c.0519858708.0519859476.0519954595.136268783.0000214186.1882665579l-1.3328399539,1.3334485956c-.0519908493.052014591-.1363068869.0520242145-.1883096084.000021493l-2.5486282874-2.5486282874c-.0838733999-.0838733999-.2272838669-.0244708394-.2272838669.0941440602v3.6042058769c0,.0735310848-.0596087219.1331398067-.1331398067.1331398067h-1.8848915771c-.0735310849,0-.1331398067-.0596087219-.1331398067-.1331398067v-3.6049004807c0-.1186148996-.143410467-.17801746-.2272838669-.0941440602l-2.5486497804,2.5486497804c-.0519943287.0519943287-.1362937916.0519943287-.1882881204,0l-1.3327967454-1.3327967454c-.0519943763-.0519943763-.0521267853-.1361614738-.0001323396-.1881557808.256256008-.2562553241.9963787704-.9963772772,1.7206025685-1.7206113551.8951664799-.8951580091,2.0463876581-.7841315128,2.0463876581-.7841315128v-.1275096677c0-.0790447832-.0640784576-.1431232408-.1431232408-.1431232408h-4.7741295646c-.0735310849,0-.1331398067-.0596087219-.1331398067-.1331398067v-1.885586181c0-.0735310848.0596087219-.1331398067.1331398067-.1331398067h3.603511273c.1186148996,0,.17801746-.143410467.0941440602-.2272838669l-2.5479553076-2.5479553076c-.0519942775-.0519942776-.0519943362-.1362936394-.000000131-.1882879893l1.3334916303-1.3334953416c.0519943618-.0519945065.1362940329-.0519945029.1882883903.0000000079l2.5486495105,2.5486570326c.0838733431.0838735906.2272840058.0244710731.2272840058-.0941439213V.1331398067c0-.0735310848.0596087219-.1331398067.1331398067-.1331398067h1.8848915771c.0735310849,0,.1331398067.0596087219.1331398067.1331398067v3.6042052061c0,.1186149943.1434106628.1780175119.2272840058.0941439213l2.5486495104-2.5486570325c.0519943574-.0519945109.1362940286-.0519945144.1882883903-.0000000079l1.3327970414,1.3328007525c.0519941958.0519943406.0521265958.1361612369.0001323403.1881555178-.2562556049.2562557299-.9963787956.9963795749-1.720603004,1.7206072099-.8951664799.8951580091-2.0463876581.7841399836-2.0463876581.7841399836v.1381792348c0,.0735310848.0596087218.1331398067.1331398067.1331398067h4.7834183949c.0735310848,0,.1331398067.0596087219.1331398067.1331398067v1.885586181c0,.0735310848-.0596087219.1331398067-.1331398067.1331398067Z"/>
      <g>
        <path class="cls-1" d="M5.4858398438,36.4287375555c0,.318359375-.060546875.6088867188-.1821289062.8720703125-.1215820312.263671875-.291015625.4907226562-.5078125.681640625-.2172851562.1909179688-.4790039062.3383789062-.7856445312.4423828125-.306640625.1044921875-.6479492188.15625-1.0244140625.15625h-1.5625v2.3525390625H.3559570312v-6.68359375h2.6474609375c.3701171875,0,.7075195312.0532226562,1.0112304688.1606445312.3037109375.1069335938.5639648438.255859375.78125.4467773438.216796875.1909179688.3862304688.419921875.5078125.685546875.1215820312.2666015625.1821289062.5615234375.1821289062.8857421875ZM4.375,36.4287375555c0-.3471679688-.1186523438-.6264648438-.3559570312-.837890625-.2373046875-.2109375-.5498046875-.3168945312-.9375-.3168945312h-1.658203125v2.283203125h1.658203125c.3935546875,0,.7075195312-.1030273438.9418945312-.3081054688.234375-.2055664062.3515625-.4790039062.3515625-.8203125Z"/>
        <path class="cls-1" d="M13.8447265625,36.4287375555c0,.318359375-.0595703125.607421875-.177734375.8676757812-.1186523438.2607421875-.2866210938.4848632812-.5034179688.6728515625-.2172851562.1879882812-.4760742188.3359375-.7768554688.4428710938-.3012695312.1069335938-.6337890625.1635742188-.9985351562.1689453125v.1391601562h.1474609375c.15625,0,.2924804688.01171875.408203125.0346679688s.234375.0737304688.3559570312.1518554688.2573242188.1953125.4077148438.3515625.3413085938.3647460938.5732421875.625l.8764648438,1.0068359375v.0434570312h-1.4233398438l-1.9184570312-2.3525390625h-1.033203125v2.3525390625h-1.0673828125v-6.68359375h2.6474609375c.3701171875,0,.7075195312.0532226562,1.0112304688.1606445312.3037109375.1069335938.5639648438.255859375.78125.4467773438.216796875.1909179688.3862304688.419921875.5078125.685546875.1215820312.2666015625.1821289062.5615234375.1821289062.8857421875ZM12.7338867188,36.4287375555c0-.3471679688-.1171875-.6264648438-.3515625-.837890625-.234375-.2109375-.5483398438-.3168945312-.9418945312-.3168945312h-1.658203125v2.283203125h1.658203125c.3935546875,0,.7075195312-.1030273438.9418945312-.3081054688.234375-.2055664062.3515625-.4790039062.3515625-.8203125Z"/>
        <path class="cls-1" d="M16.9091796875,37.591823493c0-.4975585938.0825195312-.9575195312.2475585938-1.3803710938.1645507812-.4223632812.3916015625-.7880859375.6811523438-1.09765625s.6323242188-.552734375,1.0288085938-.7294921875c.3959960938-.1762695312.8256835938-.2646484375,1.2890625-.2646484375.46875,0,.90234375.0869140625,1.3017578125.2602539062.3994140625.173828125.7421875.4140625,1.0288085938.720703125.2861328125.306640625.5107421875.6728515625.6728515625,1.0981445312.1616210938.4252929688.2426757812.8896484375.2426757812,1.3930664062s-.0810546875.9677734375-.2426757812,1.3930664062c-.162109375.4252929688-.38671875.7915039062-.6728515625,1.0981445312-.2866210938.306640625-.6293945312.546875-1.0288085938.7202148438-.3994140625.173828125-.8330078125.2607421875-1.3017578125.2607421875-.4633789062,0-.8930664062-.0883789062-1.2890625-.2651367188-.396484375-.1762695312-.7392578125-.4194335938-1.0288085938-.7290039062s-.5166015625-.6752929688-.6811523438-1.0981445312c-.1650390625-.4223632812-.2475585938-.8823242188-.2475585938-1.3798828125ZM18.0205078125,37.591823493c0,.3471679688.0532226562.6684570312.16015625.9633789062.107421875.2954101562.2563476562.5483398438.447265625.759765625.1909179688.2109375.4165039062.3774414062.6772460938.4990234375.2602539062.1215820312.5463867188.1821289062.8588867188.1821289062.318359375,0,.6079101562-.0576171875.8681640625-.1733398438s.4848632812-.279296875.6728515625-.4907226562c.1879882812-.2109375.3325195312-.4658203125.4340820312-.763671875.1010742188-.2978515625.1518554688-.6264648438.1518554688-.9853515625s-.05078125-.685546875-.1518554688-.9809570312c-.1015625-.294921875-.24609375-.546875-.4340820312-.7548828125-.1879882812-.2084960938-.4125976562-.3706054688-.6728515625-.486328125s-.5498046875-.1733398438-.8681640625-.1733398438c-.306640625,0-.5913085938.060546875-.8549804688.1821289062-.2631835938.1215820312-.490234375.2880859375-.6811523438.4990234375-.1909179688.2114257812-.33984375.4643554688-.447265625.759765625-.1069335938.294921875-.16015625.6162109375-.16015625.9633789062Z"/>
        <path class="cls-1" d="M27.6118164062,38.589870368c.0170898438.2143554688.0590820312.408203125.1254882812.5815429688.0668945312.173828125.1547851562.3227539062.2651367188.447265625.1098632812.1245117188.2368164062.2211914062.3818359375.2905273438.14453125.0698242188.3037109375.1044921875.4775390625.1044921875.3989257812,0,.7099609375-.12890625.9331054688-.3862304688.22265625-.2578125.333984375-.6206054688.333984375-1.0893554688v-4.2880859375h1.0678710938v4.2880859375c0,.3818359375-.056640625.7290039062-.1694335938,1.0415039062s-.2719726562.5786132812-.4775390625.7983398438c-.2055664062.2202148438-.4541015625.3891601562-.7465820312.5078125-.2919921875.1186523438-.6206054688.1782226562-.9848632812.1782226562-.3125,0-.6049804688-.0610351562-.876953125-.1826171875s-.5078125-.2919921875-.7075195312-.5122070312c-.1997070312-.2197265625-.3598632812-.4799804688-.4814453125-.7807617188-.1215820312-.3012695312-.1909179688-.630859375-.2084960938-.9897460938l1.0678710938-.0087890625Z"/>
        <path class="cls-1" d="M34.5209960938,40.933620368v-6.68359375h4.73046875v1.0239257812h-3.6630859375v1.8056640625h3.533203125v1.0244140625h-3.533203125v1.8051757812h3.6630859375v1.0244140625h-4.73046875Z"/>
        <path class="cls-1" d="M48.6088867188,38.451198493c-.0463867188.3876953125-.1547851562.7421875-.3251953125,1.0629882812-.1708984375.3212890625-.390625.59765625-.6596679688.8291015625s-.5805664062.4096679688-.9331054688.5336914062c-.3530273438.1245117188-.7353515625.1870117188-1.1459960938.1870117188-.46875,0-.8984375-.0854492188-1.2890625-.2563476562-.390625-.1704101562-.7260742188-.4091796875-1.0068359375-.7158203125s-.5004882812-.6728515625-.6596679688-1.0981445312-.2387695312-.892578125-.2387695312-1.4018554688.0795898438-.9765625.2387695312-1.4018554688.37890625-.7915039062.6596679688-1.0981445312.6162109375-.5454101562,1.0068359375-.7163085938c.390625-.1704101562.8203125-.255859375,1.2890625-.255859375.4106445312,0,.7915039062.0625,1.1416015625.1865234375.3500976562.1245117188.6596679688.3012695312.9287109375.5297851562s.4887695312.501953125.6596679688.8203125c.1704101562.3178710938.279296875.6713867188.3256835938,1.05859375h-1.1201171875c-.0288085938-.2255859375-.0981445312-.4321289062-.2080078125-.6206054688-.1103515625-.1879882812-.2490234375-.3486328125-.4169921875-.4814453125-.16796875-.1333007812-.361328125-.2373046875-.5815429688-.3125-.2197265625-.0751953125-.45703125-.1127929688-.7114257812-.1127929688-.3071289062,0-.5888671875.0576171875-.8466796875.1733398438-.2573242188.1157226562-.478515625.2778320312-.6640625.486328125-.1850585938.2080078125-.3295898438.4599609375-.43359375.7548828125-.1044921875.2954101562-.15625.625-.15625.9897460938,0,.3642578125.048828125.6943359375.1474609375.9892578125.0981445312.2954101562.2387695312.5483398438.4208984375.759765625s.4038085938.373046875.6640625.4858398438c.2602539062.11328125.5498046875.1694335938.8681640625.1694335938.2485351562,0,.4829101562-.0375976562.703125-.1127929688.2197265625-.0751953125.4135742188-.1821289062.5815429688-.3212890625.1674804688-.138671875.306640625-.3022460938.4165039062-.490234375s.1821289062-.3950195312.216796875-.6206054688h1.1284179688Z"/>
        <path class="cls-1" d="M53.8608398438,35.2739523992h-2.283203125v-1.0239257812h5.6420898438v1.0239257812h-2.2827148438v5.6596679688h-1.076171875v-5.6596679688Z"/>
        <path class="cls-1" d="M61.2646484375,38.9370383367c.0112304688.15625.060546875.2998046875.1474609375.4296875.0869140625.1303710938.2041015625.2446289062.3515625.3427734375.1474609375.0986328125.322265625.1752929688.5249023438.23046875.2026367188.0546875.4223632812.08203125.6596679688.08203125.46875,0,.8466796875-.0864257812,1.1328125-.2602539062.2866210938-.1733398438.4296875-.4106445312.4296875-.7119140625,0-.15625-.060546875-.2846679688-.1821289062-.3862304688-.1215820312-.1010742188-.2807617188-.1879882812-.4775390625-.2602539062s-.4223632812-.1357421875-.6767578125-.1909179688c-.2548828125-.0551757812-.513671875-.1171875-.7768554688-.1865234375-.263671875-.0698242188-.5224609375-.1489257812-.7768554688-.2387695312-.2548828125-.08984375-.48046875-.2041015625-.6772460938-.3427734375-.1967773438-.1391601562-.3559570312-.3095703125-.4775390625-.5122070312s-.1821289062-.4482421875-.1821289062-.7377929688c0-.2954101562.060546875-.5688476562.1821289062-.8203125.1215820312-.251953125.2919921875-.4702148438.5122070312-.6552734375.2197265625-.1850585938.484375-.3315429688.7944335938-.4384765625.3090820312-.1069335938.6494140625-.1606445312,1.01953125-.1606445312.3764648438,0,.720703125.056640625,1.033203125.1694335938s.5815429688.2705078125.8071289062.4731445312.40234375.4453125.5297851562.7290039062c.126953125.2836914062.193359375.5961914062.19921875.9375h-1.076171875c-.0346679688-.3818359375-.1806640625-.6884765625-.4384765625-.9204101562-.2573242188-.2309570312-.6176757812-.3471679688-1.0805664062-.3471679688-.4340820312,0-.7709960938.1000976562-1.0112304688.2998046875-.240234375.19921875-.3603515625.4467773438-.3603515625.7421875,0,.150390625.0610351562.2763671875.1826171875.3774414062s.2802734375.1879882812.4770507812.2602539062.4223632812.1376953125.6772460938.1953125c.2543945312.0581054688.513671875.1215820312.7768554688.1909179688s.5219726562.1508789062.7768554688.2431640625c.2543945312.0927734375.48046875.2114257812.6772460938.3559570312.1962890625.14453125.3559570312.3212890625.4770507812.529296875.1215820312.2084960938.1826171875.4599609375.1826171875.7553710938,0,.2836914062-.0668945312.5454101562-.1997070312.7856445312-.1333007812.240234375-.3198242188.4467773438-.5600585938.6206054688-.240234375.1733398438-.5239257812.3081054688-.8505859375.4033203125-.3271484375.095703125-.6845703125.1435546875-1.0717773438.1435546875-.3935546875,0-.7568359375-.0522460938-1.0893554688-.15625-.3330078125-.1044921875-.6206054688-.2490234375-.8637695312-.4340820312s-.4326171875-.408203125-.5688476562-.6684570312c-.1357421875-.2602539062-.2094726562-.5498046875-.2211914062-.8681640625h1.0678710938Z"/>
      </g>
    </g>
  </g>
</svg>