<?xml version="1.0" encoding="iso-8859-1"?>
<!-- Generator: Adobe Illustrator 24.0.3, SVG Export Plug-In . SVG Version: 6.00 Build 0)  -->
<svg version="1.1" id="Layer_1" xmlns="http://www.w3.org/2000/svg" xmlns:xlink="http://www.w3.org/1999/xlink" x="0px" y="0px" width="792px" height="612px" viewBox="0 0 792 612" enable-background="new 0 0 792 612" xml:space="preserve">
  <path fill="#5C2F92" d="M226.391,500.294h12.233v36.569h44.227v-36.569h12.354v87.469h-12.354v-40.028h-44.227v40.028h-12.233
	V500.294z" />
  <path fill="#5C2F92" d="M335.566,587.763h-12.233v-87.469h28.044c4.2,0,8.195,0.432,11.986,1.297
	c3.788,0.865,7.102,2.245,9.944,4.139c2.842,1.895,5.086,4.386,6.734,7.474c1.648,3.089,2.47,6.856,2.47,11.304
	c0,6.425-1.975,11.614-5.928,15.567c-3.956,3.953-9.061,6.467-15.322,7.536l24.463,40.152H370.9l-22.241-38.917h-13.094V587.763z
	 M335.566,538.592h14.084c2.88,0,5.559-0.248,8.029-0.741c2.47-0.494,4.632-1.297,6.486-2.408c1.854-1.113,3.315-2.553,4.385-4.324
	c1.07-1.77,1.607-3.973,1.607-6.61c0-2.635-0.537-4.837-1.607-6.609c-1.07-1.772-2.492-3.192-4.261-4.262
	c-1.772-1.07-3.851-1.832-6.239-2.286c-2.391-0.452-4.902-0.679-7.537-0.679h-14.948V538.592z" />
  <path fill="#5C2F92" d="M479.989,574.173c-3.461,4.696-7.95,8.506-13.465,11.428c-5.521,2.923-12.151,4.386-19.891,4.386
	c-6.671,0-12.83-1.133-18.472-3.397c-5.642-2.265-10.5-5.437-14.576-9.514s-7.271-8.936-9.576-14.578
	c-2.305-5.64-3.458-11.839-3.458-18.594c0-6.834,1.172-13.073,3.521-18.716c2.346-5.64,5.597-10.458,9.76-14.454
	c4.156-3.994,9.08-7.104,14.764-9.328c5.683-2.224,11.858-3.335,18.529-3.335c2.965,0,5.972,0.289,9.02,0.865
	c3.045,0.576,5.972,1.441,8.772,2.594c2.797,1.154,5.353,2.575,7.658,4.262c2.305,1.689,4.283,3.645,5.931,5.867l-9.636,7.414
	c-2.143-2.965-5.169-5.415-9.08-7.352c-3.915-1.934-8.134-2.904-12.665-2.904c-5.105,0-9.696,0.927-13.773,2.781
	c-4.077,1.853-7.56,4.385-10.439,7.598c-2.886,3.211-5.109,6.939-6.674,11.181c-1.565,4.243-2.346,8.752-2.346,13.527
	c0,4.942,0.762,9.557,2.286,13.838c1.524,4.283,3.705,8.01,6.547,11.181c2.842,3.172,6.302,5.664,10.379,7.474
	c4.077,1.813,8.626,2.718,13.652,2.718c4.94,0,9.43-0.987,13.465-2.964c4.035-1.978,7.369-4.859,10.007-8.649L479.989,574.173z" />
  <path fill="#5C2F92" d="M511.11,587.763h-12.233v-87.469h12.233V587.763z" />
  <rect x="226.526" y="22.716" fill="#ED1944" width="95.01" height="142.41" />
  <path fill="#5C2F92" d="M490.547,205.69c-0.975-1.443-1.985-2.861-3.034-4.252c-8.31-11.007-19.118-19.987-32.442-26.939
	c-48.423-25.264-119.209-4.162-132.378,52.341h-1.157v-61.714h-95.01v295.561h95.01V304.848c0-17.38,4.435-31.952,13.323-43.74
	c8.881-11.776,21.626-17.67,38.236-17.67c8.491,0,15.443,1.648,20.856,4.924c5.403,3.287,9.748,7.731,13.035,13.325
	c0.604,1.033,1.134,2.126,1.666,3.218c0.445,0.913,0.843,1.865,1.241,2.817l87.442-50.151
	C495.296,213.453,493.088,209.453,490.547,205.69z" />
  <path fill="#ED1944" d="M497.336,217.572l-87.442,50.151c1.706,4.088,2.988,8.522,3.754,13.372
	c1.159,7.342,1.738,15.063,1.738,23.173v156.418h95.589V282.254c0-14.284-1.837-28.577-5.504-42.871
	C503.472,231.61,500.705,224.378,497.336,217.572z" />
  <path fill="#5C2F92" d="M522.388,419.996c0-5.615,1.075-10.884,3.227-15.807c2.152-4.922,5.068-9.224,8.751-12.906
	c3.683-3.683,7.987-6.599,12.909-8.751c4.922-2.15,10.189-3.227,15.804-3.227s10.884,1.077,15.807,3.227
	c4.922,2.152,9.226,5.068,12.909,8.751c3.681,3.683,6.599,7.984,8.751,12.906c2.15,4.922,3.227,10.192,3.227,15.807
	s-1.077,10.884-3.227,15.807c-2.152,4.922-5.07,9.226-8.751,12.907c-3.683,3.683-7.987,6.602-12.909,8.751
	s-10.192,3.227-15.807,3.227s-10.882-1.077-15.804-3.227c-4.922-2.15-9.226-5.068-12.909-8.751
	c-3.683-3.681-6.599-7.984-8.751-12.907C523.463,430.88,522.388,425.611,522.388,419.996z M529.608,419.996
	c0,4.593,0.876,8.934,2.624,13.015c1.751,4.086,4.139,7.642,7.167,10.667c3.025,3.027,6.578,5.413,10.664,7.164
	c4.084,1.749,8.422,2.624,13.015,2.624c4.596,0,8.934-0.876,13.018-2.624c4.084-1.751,7.639-4.137,10.664-7.164
	c3.025-3.025,5.416-6.581,7.164-10.667c1.751-4.081,2.627-8.422,2.627-13.015c0-4.596-0.876-8.932-2.627-13.018
	c-1.749-4.084-4.139-7.637-7.164-10.664c-3.025-3.025-6.581-5.416-10.664-7.164c-4.084-1.751-8.422-2.627-13.018-2.627
	c-4.593,0-8.932,0.876-13.015,2.627c-4.086,1.749-7.639,4.139-10.664,7.164c-3.027,3.027-5.416,6.581-7.167,10.664
	C530.483,411.064,529.608,415.4,529.608,419.996z M547.436,396.478h17.94c5.615,0,9.752,1.202,12.415,3.609
	c2.661,2.407,3.993,5.872,3.993,10.391c0,4.086-1.049,7.148-3.143,9.189c-2.094,2.043-4.73,3.245-7.906,3.611l12.033,19.689h-8.971
	l-11.593-19.033h-6.236v19.033h-8.533V396.478z M555.97,416.714h6.236c1.311,0,2.624-0.053,3.938-0.164
	c1.311-0.109,2.497-0.382,3.553-0.82c1.056-0.438,1.916-1.093,2.571-1.969c0.658-0.876,0.984-2.078,0.984-3.609
	c0-1.531-0.327-2.736-0.984-3.611c-0.656-0.873-1.515-1.531-2.571-1.969c-1.056-0.438-2.242-0.693-3.553-0.764
	c-1.313-0.072-2.627-0.109-3.938-0.109h-6.236V416.714z" />
  <g></g>
  <g></g>
  <g></g>
  <g></g>
  <g></g>
  <g></g>
</svg>