<?xml version="1.0" encoding="UTF-8"?>
<svg id="Layer_2" data-name="Layer 2" xmlns="http://www.w3.org/2000/svg" viewBox="0 0 532.66 331.16">
  <defs>
    <style>
      .cls-1 {
        fill: #8097a8;
      }

      .cls-2 {
        fill: #e12726;
      }

      .cls-3 {
        fill: #395d77;
      }
    </style>
  </defs>
  <g id="Layer_1-2" data-name="Layer 1">
    <g>
      <path class="cls-3" d="M76,236.17l-5.14-16.58h-38.14l-5.13,16.58H0l38.44-103.58h26.99l38.15,103.58h-27.58ZM51.5,157.24l-12.76,43.72h26.26l-13.5-43.72Z"/>
      <polygon class="cls-3" points="175.78 236.17 175.78 192.01 137.92 192.01 137.92 236.17 111.81 236.17 111.81 132.59 138.07 132.59 138.07 170 175.78 170 175.78 132.59 201.74 132.59 201.74 236.17 175.78 236.17"/>
      <polygon class="cls-3" points="219.21 236.17 219.21 132.59 245.03 132.59 245.03 214.31 285.53 214.31 285.53 236.17 219.21 236.17"/>
      <polygon class="cls-3" points="303.13 236.17 303.13 132.59 379.71 132.59 379.71 152.55 328.95 152.55 328.95 171.47 376.33 171.47 376.33 191.13 328.95 191.13 328.95 215.78 384.41 215.78 384.41 236.17 303.13 236.17"/>
      <rect class="cls-3" x="397.76" y="132.59" width="25.82" height="103.58"/>
      <polygon class="cls-2" points="528.15 235.63 503.37 235.64 503.46 61.13 450.46 8.8 418.8 40.15 415.23 40.1 452.71 0 528.15 68.52 528.15 235.63"/>
      <polygon class="cls-1" points="479.99 236.16 454.74 236.17 454.81 86.02 405.26 37.63 351.71 92.73 348.96 92.69 407.15 29.72 479.99 95.27 479.99 236.16"/>
      <path class="cls-3" d="M2.95,284.93H0l10.83-24.89h2.46l10.83,24.89h-2.95l-2.74-6.54H5.7l-2.74,6.54ZM6.65,276.07h10.79l-5.38-13.08-5.41,13.08Z"/>
      <polygon class="cls-3" points="40.64 280.29 49.04 260.04 52.9 260.04 52.9 284.93 50.37 284.93 50.37 263.41 50.3 263.41 41.3 284.93 39.97 284.93 30.97 263.41 30.9 263.41 30.9 284.93 28.37 284.93 28.37 260.04 32.24 260.04 40.64 280.29"/>
      <polygon class="cls-3" points="63.06 282.61 76.38 282.61 76.38 284.93 60.53 284.93 60.53 260.04 75.96 260.04 75.96 262.36 63.06 262.36 63.06 270.83 75.12 270.83 75.12 273.15 63.06 273.15 63.06 282.61"/>
      <path class="cls-3" d="M84.79,284.93h-2.53v-24.89h7.66c2.53,0,4.53.55,6,1.65,1.46,1.1,2.2,2.76,2.2,4.99,0,1.73-.54,3.2-1.63,4.38-1.09,1.18-2.67,1.87-4.73,2.06l7.17,11.81h-3.09l-6.82-11.56h-4.22v11.56ZM84.79,271.04h4.5c1.12,0,2.08-.12,2.87-.35.78-.23,1.41-.55,1.88-.93.47-.39.81-.84,1.02-1.37.21-.53.31-1.09.31-1.71s-.11-1.14-.31-1.67c-.21-.53-.55-.99-1.02-1.39-.47-.4-1.1-.71-1.88-.93-.79-.22-1.74-.33-2.87-.33h-4.5v8.68Z"/>
      <rect class="cls-3" x="103.98" y="260.04" width="2.53" height="24.89"/>
      <path class="cls-3" d="M134.63,280.99c-.42.63-.94,1.23-1.57,1.79-.62.56-1.33,1.05-2.12,1.46-.8.41-1.66.73-2.58.97-.93.23-1.9.35-2.94.35-1.85,0-3.57-.33-5.15-.98-1.58-.66-2.95-1.56-4.12-2.72-1.16-1.16-2.07-2.54-2.72-4.13-.65-1.59-.98-3.34-.98-5.24s.33-3.64.98-5.24c.66-1.59,1.57-2.97,2.72-4.13,1.16-1.16,2.53-2.07,4.12-2.72,1.58-.66,3.3-.99,5.15-.99,1.55,0,3.09.31,4.64.91,1.55.61,2.87,1.62,3.97,3.02l-2.22,1.65c-.26-.4-.61-.8-1.06-1.2-.44-.4-.96-.75-1.53-1.05-.58-.3-1.19-.55-1.85-.74-.65-.19-1.31-.28-1.97-.28-1.59,0-3.02.29-4.29.88-1.27.59-2.34,1.37-3.22,2.35-.88.99-1.55,2.13-2.02,3.43-.47,1.3-.7,2.67-.7,4.09s.23,2.79.7,4.1c.47,1.3,1.14,2.44,2.02,3.43.88.98,1.95,1.77,3.22,2.35,1.26.59,2.69.88,4.29.88.66,0,1.31-.06,1.95-.18.65-.12,1.28-.32,1.9-.6.62-.28,1.21-.66,1.76-1.14.55-.48,1.06-1.08,1.53-1.81l2.07,1.48Z"/>
      <path class="cls-3" d="M139.34,284.93h-2.95l10.83-24.89h2.46l10.83,24.89h-2.95l-2.74-6.54h-12.73l-2.74,6.54ZM143.03,276.07h10.79l-5.38-13.08-5.41,13.08Z"/>
      <polygon class="cls-3" points="182.75 281.13 182.82 281.13 182.82 260.04 185.35 260.04 185.35 284.93 182.19 284.93 167.35 263.63 167.28 263.63 167.28 284.93 164.75 284.93 164.75 260.04 167.91 260.04 182.75 281.13"/>
      <polygon class="cls-3" points="203.63 260.04 206.16 260.04 206.16 270.83 219.73 270.83 219.73 260.04 222.26 260.04 222.26 284.93 219.73 284.93 219.73 273.15 206.16 273.15 206.16 284.93 203.63 284.93 203.63 260.04"/>
      <path class="cls-3" d="M254.14,272.48c0,1.9-.33,3.64-.98,5.24-.66,1.6-1.56,2.97-2.73,4.13-1.16,1.16-2.53,2.07-4.11,2.72-1.58.66-3.3.98-5.15.98s-3.57-.33-5.15-.98c-1.58-.66-2.95-1.56-4.12-2.72-1.16-1.16-2.07-2.54-2.72-4.13-.66-1.59-.99-3.34-.99-5.24s.33-3.64.99-5.24c.65-1.59,1.57-2.97,2.72-4.13,1.16-1.16,2.53-2.07,4.12-2.72,1.58-.66,3.3-.98,5.15-.98s3.57.33,5.15.98c1.59.66,2.96,1.56,4.11,2.72,1.16,1.16,2.07,2.54,2.73,4.13.66,1.59.98,3.34.98,5.24M251.4,272.48c0-1.43-.23-2.79-.7-4.09-.47-1.3-1.14-2.44-2.02-3.43-.88-.98-1.95-1.77-3.22-2.35-1.26-.59-2.7-.88-4.29-.88s-3.02.29-4.29.88-2.34,1.37-3.21,2.35c-.88.99-1.55,2.13-2.02,3.43-.47,1.3-.7,2.67-.7,4.09s.24,2.79.7,4.09c.47,1.3,1.14,2.44,2.02,3.43.88.98,1.95,1.77,3.21,2.35s2.69.88,4.29.88,3.02-.29,4.29-.88c1.27-.59,2.34-1.37,3.22-2.35.88-.99,1.55-2.13,2.02-3.43.47-1.3.7-2.66.7-4.09"/>
      <polygon class="cls-3" points="268.06 284.93 265.53 284.93 265.53 262.36 257.2 262.36 257.2 260.04 276.39 260.04 276.39 262.36 268.06 262.36 268.06 284.93"/>
      <polygon class="cls-3" points="283.67 282.61 296.99 282.61 296.99 284.93 281.14 284.93 281.14 260.04 296.57 260.04 296.57 262.36 283.67 262.36 283.67 270.83 295.72 270.83 295.72 273.15 283.67 273.15 283.67 282.61"/>
      <polygon class="cls-3" points="305.39 282.61 316.99 282.61 316.99 284.93 302.86 284.93 302.86 260.04 305.39 260.04 305.39 282.61"/>
      <path class="cls-3" d="M347.18,279.16l5.59,5.76h-3.58l-3.52-3.65c-1.03,1.33-2.13,2.38-3.31,3.15-1.17.76-2.6,1.14-4.29,1.14-1.03,0-2.02-.16-2.97-.47-.95-.31-1.78-.78-2.5-1.39-.71-.61-1.28-1.35-1.7-2.23-.42-.88-.63-1.88-.63-3,0-.91.15-1.74.46-2.5.31-.75.72-1.42,1.25-2.02.53-.6,1.13-1.13,1.81-1.6.68-.47,1.39-.88,2.14-1.23-.75-.8-1.43-1.68-2.02-2.66-.6-.97-.89-2.03-.89-3.18,0-.94.16-1.77.47-2.5.32-.73.76-1.34,1.32-1.85.56-.5,1.22-.88,1.97-1.14.75-.26,1.57-.39,2.46-.39.82,0,1.6.12,2.32.37.72.24,1.36.6,1.91,1.07.55.47.99,1.05,1.3,1.74.32.69.48,1.49.48,2.41,0,.82-.16,1.55-.49,2.2-.33.64-.76,1.23-1.28,1.76-.53.53-1.12,1-1.77,1.41-.66.41-1.3.78-1.93,1.11l5.73,5.9,3.41-5.9h2.85l-4.57,7.7ZM337.52,272.69c-.82.47-1.52.91-2.09,1.32-.58.41-1.04.85-1.39,1.3-.35.46-.61.94-.77,1.46-.16.52-.25,1.09-.25,1.72,0,.7.14,1.35.42,1.93.28.59.65,1.08,1.12,1.5.47.41,1.01.73,1.62.96.61.23,1.25.35,1.93.35s1.29-.09,1.84-.28c.55-.19,1.07-.45,1.55-.77.48-.33.93-.72,1.35-1.16.42-.45.83-.93,1.23-1.44l-6.57-6.89ZM342.72,265c0-.99-.33-1.77-1-2.37-.67-.6-1.48-.9-2.44-.9-1.06,0-1.94.33-2.65.99-.72.65-1.07,1.54-1.07,2.67,0,.42.1.86.3,1.32.2.46.43.88.7,1.28.27.4.55.77.84,1.11.29.34.54.59.75.76.47-.28.97-.57,1.51-.86.54-.29,1.04-.63,1.49-1,.46-.37.83-.81,1.12-1.3.29-.49.44-1.05.44-1.69"/>
      <polygon class="cls-3" points="370.77 282.61 382.37 282.61 382.37 284.93 368.24 284.93 368.24 260.04 370.77 260.04 370.77 282.61"/>
      <path class="cls-3" d="M410.95,272.48c0,1.9-.33,3.64-.98,5.24-.66,1.6-1.56,2.97-2.73,4.13-1.16,1.16-2.53,2.07-4.11,2.72-1.58.66-3.3.98-5.15.98s-3.57-.33-5.15-.98c-1.58-.66-2.95-1.56-4.12-2.72-1.16-1.16-2.07-2.54-2.72-4.13-.66-1.59-.99-3.34-.99-5.24s.33-3.64.99-5.24c.65-1.59,1.56-2.97,2.72-4.13,1.16-1.16,2.53-2.07,4.12-2.72,1.58-.66,3.3-.98,5.15-.98s3.57.33,5.15.98c1.59.66,2.96,1.56,4.11,2.72,1.16,1.16,2.07,2.54,2.73,4.13.66,1.59.98,3.34.98,5.24M408.21,272.48c0-1.43-.23-2.79-.7-4.09-.47-1.3-1.14-2.44-2.02-3.43-.88-.98-1.95-1.77-3.22-2.35-1.26-.59-2.7-.88-4.29-.88s-3.02.29-4.29.88-2.34,1.37-3.21,2.35c-.88.99-1.55,2.13-2.02,3.43-.47,1.3-.7,2.67-.7,4.09s.24,2.79.7,4.09c.47,1.3,1.14,2.44,2.02,3.43.88.98,1.95,1.77,3.21,2.35s2.69.88,4.29.88,3.02-.29,4.29-.88c1.27-.59,2.34-1.37,3.22-2.35.88-.99,1.55-2.13,2.02-3.43.47-1.3.7-2.66.7-4.09"/>
      <path class="cls-3" d="M416.54,260.04h8.26c1.55,0,3.1.26,4.66.77,1.56.52,2.96,1.29,4.22,2.34,1.26,1.04,2.27,2.34,3.04,3.9.77,1.56,1.16,3.37,1.16,5.43s-.39,3.9-1.16,5.45c-.77,1.55-1.79,2.84-3.04,3.88-1.25,1.04-2.66,1.82-4.22,2.34-1.56.51-3.11.77-4.66.77h-8.26v-24.89ZM419.07,282.61h4.92c1.9,0,3.54-.29,4.94-.86,1.39-.58,2.55-1.33,3.48-2.28.92-.95,1.61-2.03,2.06-3.23.44-1.21.67-2.45.67-3.74s-.23-2.54-.67-3.74c-.44-1.21-1.13-2.29-2.06-3.23-.92-.95-2.09-1.71-3.48-2.28-1.39-.58-3.04-.86-4.94-.86h-4.92v20.25Z"/>
      <path class="cls-3" d="M462.2,264.61c-.84-.89-1.85-1.59-3.03-2.11-1.17-.51-2.53-.77-4.08-.77s-3.02.29-4.29.88c-1.26.59-2.34,1.37-3.21,2.35-.88.99-1.55,2.13-2.02,3.43-.47,1.3-.71,2.67-.71,4.09s.23,2.79.71,4.1c.47,1.3,1.14,2.44,2.02,3.43.88.98,1.95,1.77,3.21,2.35,1.27.59,2.7.88,4.29.88,1.29,0,2.53-.16,3.71-.47,1.19-.31,2.24-.74,3.18-1.28v-8.33h-5.94v-2.32h8.47v12.2c-1.41.82-2.95,1.45-4.62,1.88-1.68.43-3.28.65-4.8.65-1.85,0-3.57-.33-5.15-.98-1.58-.66-2.95-1.56-4.11-2.72-1.16-1.16-2.07-2.54-2.72-4.13-.66-1.59-.98-3.34-.98-5.24s.33-3.64.98-5.24c.66-1.59,1.56-2.97,2.72-4.13,1.16-1.16,2.53-2.07,4.11-2.72,1.58-.66,3.3-.98,5.15-.98,1.99,0,3.71.27,5.15.83,1.44.55,2.72,1.39,3.85,2.51l-1.9,1.86Z"/>
      <rect class="cls-3" x="472.04" y="260.04" width="2.53" height="24.89"/>
      <polygon class="cls-3" points="500.2 281.13 500.27 281.13 500.27 260.04 502.8 260.04 502.8 284.93 499.64 284.93 484.8 263.63 484.73 263.63 484.73 284.93 482.2 284.93 482.2 260.04 485.36 260.04 500.2 281.13"/>
      <path class="cls-3" d="M528.81,264.61c-.84-.89-1.85-1.59-3.03-2.11-1.17-.51-2.53-.77-4.08-.77s-3.02.29-4.29.88c-1.26.59-2.34,1.37-3.21,2.35-.88.99-1.55,2.13-2.02,3.43-.47,1.3-.71,2.67-.71,4.09s.23,2.79.71,4.1c.47,1.3,1.14,2.44,2.02,3.43.88.98,1.95,1.77,3.21,2.35,1.27.59,2.7.88,4.29.88,1.29,0,2.53-.16,3.71-.47,1.19-.31,2.24-.74,3.18-1.28v-8.33h-5.94v-2.32h8.47v12.2c-1.41.82-2.95,1.45-4.62,1.88-1.68.43-3.28.65-4.8.65-1.85,0-3.57-.33-5.15-.98-1.58-.66-2.95-1.56-4.11-2.72-1.16-1.16-2.07-2.54-2.72-4.13-.66-1.59-.98-3.34-.98-5.24s.33-3.64.98-5.24c.66-1.59,1.56-2.97,2.72-4.13,1.16-1.16,2.53-2.07,4.11-2.72,1.58-.66,3.3-.98,5.15-.98,1.99,0,3.71.27,5.15.83,1.44.55,2.72,1.39,3.85,2.51l-1.9,1.86Z"/>
      <polygon class="cls-2" points="3.2 301.36 22.95 301.36 22.95 307.27 9.61 307.27 9.61 312.69 22.21 312.69 22.21 318.6 9.61 318.6 9.61 324.51 23.68 324.51 23.68 330.42 3.2 330.42 3.2 301.36"/>
      <path class="cls-2" d="M29.47,301.36h9.61c2.33,0,4.53.26,6.63.78,2.09.52,3.92,1.36,5.48,2.52,1.56,1.16,2.8,2.68,3.72,4.54.92,1.86,1.38,4.12,1.38,6.77,0,2.35-.45,4.43-1.33,6.22-.89,1.79-2.09,3.3-3.59,4.51-1.5,1.22-3.24,2.14-5.21,2.77-1.97.63-4.04.94-6.2.94h-10.47v-29.06ZM35.87,324.51h3.33c1.48,0,2.85-.15,4.13-.45,1.27-.3,2.37-.8,3.3-1.5.93-.7,1.66-1.61,2.2-2.75.53-1.14.8-2.52.8-4.17,0-1.42-.27-2.66-.8-3.71-.53-1.05-1.25-1.92-2.15-2.61-.9-.68-1.96-1.2-3.18-1.54-1.22-.34-2.5-.51-3.84-.51h-3.78v17.24Z"/>
      <path class="cls-2" d="M84.96,319.21c0,1.72-.26,3.31-.78,4.76-.52,1.45-1.29,2.71-2.32,3.78-1.02,1.07-2.3,1.9-3.84,2.5-1.53.6-3.3.9-5.3.9s-3.8-.3-5.33-.9c-1.53-.6-2.81-1.44-3.84-2.5-1.03-1.07-1.8-2.33-2.32-3.78-.52-1.45-.78-3.04-.78-4.76v-17.85h6.4v17.61c0,.9.15,1.74.43,2.5.29.77.69,1.43,1.21,1.99.52.56,1.14,1,1.87,1.31.72.32,1.51.47,2.36.47s1.63-.16,2.34-.47c.71-.31,1.32-.75,1.84-1.31.52-.56.93-1.23,1.21-1.99.29-.77.43-1.6.43-2.5v-17.61h6.4v17.85Z"/>
      <path class="cls-2" d="M110.53,308.91c-.63-.77-1.4-1.35-2.32-1.77-.92-.41-1.98-.62-3.18-.62s-2.32.23-3.35.7c-1.03.46-1.91,1.11-2.67,1.95-.76.84-1.34,1.83-1.77,2.98-.42,1.15-.63,2.4-.63,3.73s.21,2.62.63,3.76c.42,1.14,1.01,2.12,1.75,2.96.74.83,1.61,1.48,2.61,1.95,1,.47,2.07.7,3.22.7,1.32,0,2.48-.27,3.49-.82,1.01-.55,1.85-1.31,2.5-2.3l5.33,3.98c-1.23,1.72-2.79,3-4.68,3.82-1.89.82-3.83,1.23-5.83,1.23-2.27,0-4.37-.36-6.28-1.07-1.92-.71-3.57-1.73-4.97-3.06-1.4-1.33-2.48-2.93-3.26-4.82-.78-1.89-1.17-4-1.17-6.32s.39-4.43,1.17-6.32c.78-1.89,1.87-3.5,3.26-4.82,1.4-1.33,3.05-2.35,4.97-3.06,1.91-.71,4.01-1.07,6.28-1.07.82,0,1.67.07,2.56.23.89.15,1.76.39,2.63.72.86.33,1.69.77,2.49,1.31.79.55,1.5,1.22,2.13,2.01l-4.93,4.02Z"/>
      <path class="cls-2" d="M130.69,301.36h5.29l12.64,29.06h-7.22l-2.5-6.16h-11.29l-2.42,6.16h-7.06l12.56-29.06ZM133.15,309.81l-3.53,9.03h7.1l-3.57-9.03Z"/>
      <polygon class="cls-2" points="155.76 307.02 147.47 307.02 147.47 301.36 170.46 301.36 170.46 307.02 162.17 307.02 162.17 330.42 155.76 330.42 155.76 307.02"/>
      <rect class="cls-2" x="175.92" y="301.36" width="6.41" height="29.06"/>
      <path class="cls-2" d="M187.86,315.89c0-2.32.39-4.43,1.17-6.32.78-1.89,1.87-3.5,3.26-4.82,1.4-1.33,3.05-2.35,4.97-3.06,1.92-.71,4.01-1.07,6.28-1.07s4.37.36,6.28,1.07c1.91.71,3.57,1.73,4.97,3.06,1.39,1.33,2.48,2.93,3.26,4.82.78,1.89,1.17,4,1.17,6.32s-.39,4.43-1.17,6.32c-.78,1.89-1.87,3.5-3.26,4.82-1.4,1.33-3.05,2.35-4.97,3.06-1.91.71-4.01,1.07-6.28,1.07s-4.36-.36-6.28-1.07c-1.92-.71-3.57-1.73-4.97-3.06-1.4-1.33-2.48-2.93-3.26-4.82-.78-1.89-1.17-4-1.17-6.32M194.51,315.89c0,1.37.21,2.62.64,3.76.42,1.14,1.03,2.12,1.83,2.96.79.83,1.74,1.48,2.85,1.95,1.11.47,2.35.7,3.72.7s2.61-.23,3.71-.7c1.11-.46,2.06-1.11,2.86-1.95.79-.83,1.4-1.82,1.83-2.96.42-1.13.63-2.39.63-3.76s-.21-2.58-.63-3.73c-.43-1.15-1.03-2.14-1.83-2.98-.8-.83-1.75-1.48-2.86-1.95-1.1-.47-2.35-.7-3.71-.7s-2.61.23-3.72.7c-1.11.46-2.06,1.11-2.85,1.95-.79.84-1.4,1.83-1.83,2.98-.42,1.15-.64,2.4-.64,3.73"/>
      <polygon class="cls-2" points="223.61 301.36 232.31 301.36 244.66 321.55 244.75 321.55 244.75 301.36 251.15 301.36 251.15 330.42 242.78 330.42 230.09 309.73 230.01 309.73 230.01 330.42 223.61 330.42 223.61 301.36"/>
      <path class="cls-2" d="M267.28,301.36h5.29l12.64,29.06h-7.22l-2.5-6.16h-11.29l-2.42,6.16h-7.06l12.56-29.06ZM269.74,309.81l-3.53,9.03h7.1l-3.57-9.03Z"/>
      <polygon class="cls-2" points="288.21 301.36 294.61 301.36 294.61 324.51 306.48 324.51 306.48 330.42 288.21 330.42 288.21 301.36"/>
      <rect class="cls-2" x="323.39" y="301.36" width="6.4" height="29.06"/>
      <polygon class="cls-2" points="336.69 301.36 345.39 301.36 357.74 321.55 357.82 321.55 357.82 301.36 364.22 301.36 364.22 330.42 355.85 330.42 343.17 309.73 343.09 309.73 343.09 330.42 336.69 330.42 336.69 301.36"/>
      <path class="cls-2" d="M384.33,308.46c-.52-.66-1.23-1.14-2.11-1.46-.89-.31-1.73-.47-2.52-.47-.47,0-.94.05-1.44.16-.49.11-.96.28-1.4.51-.44.23-.79.54-1.07.92-.27.38-.41.85-.41,1.4,0,.88.33,1.55.98,2.01.66.46,1.48.86,2.49,1.19,1,.33,2.07.66,3.22.99,1.15.33,2.22.79,3.22,1.4,1,.6,1.83,1.41,2.48,2.42.65,1.01.99,2.37.99,4.06s-.3,3.02-.9,4.22c-.6,1.21-1.42,2.21-2.44,3-1.03.79-2.22,1.38-3.57,1.76-1.35.38-2.79.58-4.29.58-1.89,0-3.64-.29-5.25-.86-1.62-.58-3.12-1.5-4.52-2.79l4.56-5.01c.66.88,1.49,1.55,2.48,2.03,1,.48,2.03.72,3.1.72.52,0,1.05-.06,1.58-.19s1.01-.31,1.44-.55c.42-.25.77-.56,1.03-.94.26-.38.39-.83.39-1.35,0-.88-.34-1.57-1.01-2.07-.67-.5-1.51-.94-2.52-1.29-1.01-.36-2.11-.71-3.29-1.07-1.18-.36-2.27-.83-3.28-1.44-1.01-.6-1.85-1.4-2.52-2.38-.67-.99-1.01-2.28-1.01-3.9s.31-2.93.92-4.11c.62-1.18,1.44-2.16,2.47-2.95,1.03-.79,2.21-1.39,3.55-1.79,1.34-.4,2.72-.6,4.14-.6,1.64,0,3.23.23,4.76.7,1.53.46,2.91,1.24,4.15,2.34l-4.39,4.8Z"/>
      <polygon class="cls-2" points="399.81 307.02 391.51 307.02 391.51 301.36 414.5 301.36 414.5 307.02 406.21 307.02 406.21 330.42 399.81 330.42 399.81 307.02"/>
      <rect class="cls-2" x="418.94" y="301.36" width="6.4" height="29.06"/>
      <polygon class="cls-2" points="438.06 307.02 429.77 307.02 429.77 301.36 452.75 301.36 452.75 307.02 444.46 307.02 444.46 330.42 438.06 330.42 438.06 307.02"/>
      <path class="cls-2" d="M481.16,319.21c0,1.72-.26,3.31-.78,4.76-.52,1.45-1.29,2.71-2.32,3.78-1.03,1.07-2.31,1.9-3.84,2.5-1.53.6-3.3.9-5.3.9s-3.8-.3-5.33-.9c-1.53-.6-2.81-1.44-3.84-2.5-1.03-1.07-1.8-2.33-2.32-3.78-.52-1.45-.78-3.04-.78-4.76v-17.85h6.4v17.61c0,.9.15,1.74.43,2.5.29.77.69,1.43,1.21,1.99.52.56,1.14,1,1.87,1.31.72.32,1.51.47,2.36.47s1.63-.16,2.34-.47c.71-.31,1.32-.75,1.84-1.31.52-.56.93-1.23,1.21-1.99.29-.77.43-1.6.43-2.5v-17.61h6.41v17.85Z"/>
      <polygon class="cls-2" points="493.35 307.02 485.05 307.02 485.05 301.36 508.04 301.36 508.04 307.02 499.75 307.02 499.75 330.42 493.35 330.42 493.35 307.02"/>
      <polygon class="cls-2" points="512.18 301.36 531.93 301.36 531.93 307.27 518.59 307.27 518.59 312.69 531.19 312.69 531.19 318.6 518.59 318.6 518.59 324.51 532.66 324.51 532.66 330.42 512.18 330.42 512.18 301.36"/>
    </g>
  </g>
</svg>